<?xml version="1.0" encoding="utf-8"?>
<!-- Generator: Adobe Illustrator 27.8.1, SVG Export Plug-In . SVG Version: 6.00 Build 0)  -->
<svg version="1.1" id="Layer_1" xmlns="http://www.w3.org/2000/svg" xmlns:xlink="http://www.w3.org/1999/xlink" x="0px" y="0px"
	 viewBox="0 0 274 300" style="enable-background:new 0 0 274 300;" xml:space="preserve">
<g transform="translate(0.000000,300.000000) scale(0.100000,-0.100000)">
	<path d="M1194.52,1883.14c11.17,34.67,11.17,18.57,11.17,34.67v19.31l113.11-4.02c79.67-3.22,113.11-1.61,113.11,4.83
		c0,5.63-36.39,8.85-113.11,8.85h-113.11v24.14v24.14h114.1c72.79,0,111.15,3.22,107.21,8.05s-54.1,8.05-118.03,8.05h-111.15
		l-3.93,36.21l-2.95,36.21l68.85,0.8c37.38,0.8,82.62,4.02,98.36,8.05c19.67,4.02-3.93,5.63-70.82,4.83l-99.34-1.61l-11.8,48.28
		c-17.7,78.06-106.23,362.12-120.98,391.89l-13.77,26.56l-24.59-44.26c-13.77-24.14-41.31-79.67-62.95-122.32
		c-35.41-72.42-41.31-78.86-67.87-82.08c-67.87-8.85-472.12-13.68-457.37-5.63c7.87,4.83,26.56,8.85,41.31,8.85
		c31.47,0,34.43-11.27-36.39,127.14c-25.57,49.09-49.18,90.13-53.11,90.13c-12.79,0-68.85-160.14-83.6-237.39
		c-7.87-39.43-17.7-102.2-20.66-138.41l-6.89-65.99l-85.57-3.22l-84.59-2.41l86.56-1.61l85.57-1.61v-40.24v-40.24H158.17
		c-68.85,0-113.11-3.22-113.11-8.05s44.26-8.05,113.11-8.05h113.11v-20.12c0-20.12,0-20.12-100.33-21.73l-101.31-1.61l96.39-4.02
		c91.47-4.83,96.39-5.63,109.18-26.56c8.85-12.88,9.84-22.53,3.93-24.14c-13.77-4.02,25.57-90.93,56.06-123.12
		c58.03-62.77,215.4-96.57,418.02-89.32c211.47,7.24,351.14,48.28,405.24,117.49c15.74,20.12,31.47,45.87,34.43,57.13
		c2.95,12.88-6.78,21.97,8.96,26.8 M603.74,2102.89c18.69-10.46,22.62-17.7,19.67-45.06c-3.93-45.87-39.34-66.79-111.15-65.99
		c-57.05,1.61-145.57,34.6-163.27,61.16c-17.7,27.36-6.89,49.89,30.49,60.35C423.74,2126.23,572.26,2118.99,603.74,2102.89z
		 M1112.25,2112.55c23.61-8.05,34.43-17.7,34.43-28.17c0-39.43-99.34-84.49-188.85-84.49c-61.97-0.8-88.52,12.88-105.24,52.31
		c-12.79,30.58,10.82,52.31,64.92,59.55c20.66,3.22,44.26,6.44,52.13,8.05C1008.97,2126.23,1081.76,2122.21,1112.25,2112.55z
		 M677.51,1893.67c29.51-23.34,42.29-70.81,27.54-102.2c-16.72-36.21-31.47-25.75-24.59,16.9c5.9,37.02,3.93,40.24-28.52,65.99
		c-34.43,26.56-38.36,40.24-12.79,40.24C646.03,1914.59,663.74,1904.93,677.51,1893.67z M878.16,1892.86
		c1.97-4.83-10.82-12.88-29.51-17.7c-36.39-10.46-56.06-35.41-56.06-73.23c0-16.09-4.92-24.14-14.75-24.14
		c-31.47,0-8.85,95.76,27.54,116.68C828.98,1908.15,872.26,1907.35,878.16,1892.86z"/>
	<path d="M486.69,2085.99c-12.79-28.97-7.87-62.77,10.82-62.77c18.69,0,34.43,36.21,25.57,63.57
		C515.21,2114.16,499.48,2113.35,486.69,2085.99z"/>
	<path d="M971.6,2069.9c1.97-28.16,6.89-38.63,17.7-38.63c18.69,0,25.57,49.09,8.85,65.18
		C977.5,2117.38,968.65,2108.53,971.6,2069.9z"/>
	<path d="M1527.32,2105.31c-47.21-95.76-90.49-273.6-97.37-399.94l-2.95-44.26l-88.52-4.83l-88.52-4.02l86.56-1.61
		c73.77-1.61,85.57-3.22,85.57-15.29c0-8.05,2.95-22.53,5.9-32.19c5.9-18.51,4.92-18.51-105.24-20.12l-112.13-0.8l106.23-5.63
		c104.26-4.83,130.82-12.88,121.96-36.21c-1.97-4.02-49.18-9.66-106.23-12.88l-102.29-4.02l105.24-1.61l105.24-1.61l18.69-33.8
		c24.59-45.06,54.1-66.79,125.9-90.13c175.08-58.74,479.01-60.35,638.35-4.83c75.74,26.56,127.87,75.64,146.55,138.41l5.9,21.73
		l106.23,3.22l105.24,2.41l-106.23,1.61l-106.23,1.61l3.93,26.56l2.95,25.75l100.33,2.41c130.82,3.22,131.8,17.7,1.97,17.7h-98.36
		v32.19v31.38l91.47,3.22l90.49,2.41l-90.49,1.61l-90.49,1.61l-4.92,26.56c-1.97,13.68-10.82,70.01-19.67,123.12
		c-14.75,94.15-57.05,233.37-74.75,247.85c-4.92,4.02-31.47-31.38-62.95-82.08l-54.1-88.52l40.33-4.83
		c21.64-3.22,37.38-7.24,34.43-9.66c-1.97-2.41-147.54-0.8-322.62,2.41s-301.96,7.24-281.31,8.85c19.67,1.61,36.39,7.24,36.39,12.07
		c0,15.29-87.54,176.23-107.21,197.96l-17.7,18.51L1527.32,2105.31z M1740.76,1752.04c70.82-12.07,94.42-35.41,94.42-90.13
		c0-41.04-1.97-45.87-29.51-57.13c-33.44-13.68-152.46-16.09-207.54-4.02c-112.13,25.75-162.29,103.81-92.46,141.63
		C1557.81,1769.74,1622.73,1772.96,1740.76,1752.04z M2297.47,1755.26c48.2-19.31,50.16-45.06,5.9-86.91
		c-50.16-48.28-120-70.81-200.65-65.18c-79.67,4.83-95.41,16.9-95.41,70.01c0,46.67,19.67,66.79,79.67,84.49
		C2143.05,1773.77,2255.18,1772.96,2297.47,1755.26z M1861.74,1532.35c11.8-6.44,26.56-24.95,32.46-41.04l11.8-29.77l19.67,37.02
		c10.82,20.92,28.52,39.43,39.34,42.65c28.52,7.24,31.47-0.8,8.85-26.56c-11.8-12.07-28.52-40.24-38.36-61.96
		c-8.85-21.73-20.66-37.82-26.56-37.02c-4.92,1.61-17.7,18.51-26.56,38.63c-9.84,20.12-28.52,45.87-42.29,57.94
		C1805.68,1541.2,1821.41,1555.69,1861.74,1532.35z"/>
	<path d="M1659.12,1735.14c-22.62-47.48-7.87-98.98,24.59-88.52c18.69,5.63,17.7,74.84,0,95.76
		C1669.94,1756.87,1668.96,1756.87,1659.12,1735.14z"/>
	<path d="M2136.16,1749.63c-8.85-19.31-6.89-86.91,2.95-99.78c17.7-22.53,40.33-3.22,39.34,32.99
		C2176.49,1743.99,2151.9,1782.62,2136.16,1749.63z"/>
	<path d="M1127.99,1727.09c-20.66-20.92-129.83-55.53-225.24-71.62c-77.7-12.88-120-15.29-228.19-12.07
		c-123.93,3.22-183.93,12.88-266.55,41.04c-13.77,4.83-19.67-8.05-37.38-85.3c-56.06-239.8-85.57-535.13-76.72-774.94
		c11.8-313.03,68.85-437.76,233.11-506.97c44.26-18.51,123.93-36.21,165.24-36.21h31.47v50.7c0,27.36,4.92,82.08,9.84,122.32
		c21.64,173.01,41.31,499.73,41.31,704.12c0,189.11-2.95,232.56-18.69,296.13c-10.82,40.24-16.72,74.03-12.79,74.03
		c7.87,0,38.36-51.5,51.15-84.49c19.67-54.72,27.54-156.11,27.54-348.44c0-112.66-1.97-231.76-4.92-265.55
		c-2.95-34.6-11.8-157.72-19.67-275.21C788.65,437.14,779.8,326.9,775.86,310l-5.9-31.38l46.23,4.83
		c65.9,8.05,154.42,48.28,211.47,98.17c80.65,70.01,133.77,173.82,164.26,321.08c20.66,102.2,28.52,464.32,14.75,636.53
		c-8.85,117.49-53.11,387.07-63.93,395.92C1140.77,1736.75,1134.87,1732.73,1127.99,1727.09z M485.71,1558.1
		c1.97-12.07-0.98-21.73-4.92-21.73c-14.75,0-32.46,18.51-32.46,34.6C448.33,1595.12,481.77,1583.85,485.71,1558.1z
		 M1073.89,1524.31c-8.85-65.99-35.41-115.07-106.23-198.76c-35.41-41.04-76.72-92.54-92.46-115.07
		c-38.36-53.92-40.33-34.6-8.85,81.28c29.51,106.22,61.97,173.01,101.31,207.62c26.56,22.53,98.36,69.21,108.19,69.21
		C1078.81,1568.57,1077.82,1548.45,1073.89,1524.31z M625.38,1545.23c16.72-26.56,11.8-42.65-11.8-39.43
		c-17.7,1.61-23.61,8.85-25.57,28.97C584.07,1564.54,607.67,1570.98,625.38,1545.23z M558.49,1438.2
		c55.08-19.31,123.93-77.25,159.34-133.58c13.77-22.53,25.57-45.06,25.57-49.09c0-16.09-135.73,25.75-199.67,61.16
		c-42.29,24.14-105.24,101.39-105.24,129.56c0,16.9,2.95,17.7,37.38,12.88C495.54,1456.71,532.92,1447.05,558.49,1438.2z
		 M448.33,1286.11c16.72-24.95,8.85-38.63-16.72-30.58c-15.74,4.83-22.62,13.68-22.62,27.36
		C408.99,1307.84,433.58,1310.25,448.33,1286.11z M1087.66,1283.7c0-16.9-36.39-78.06-57.05-95.76
		c-22.62-20.12-89.51-53.92-105.24-53.92c-26.56,0,48.2,117.49,87.54,137.61C1039.47,1284.5,1087.66,1292.55,1087.66,1283.7z
		 M643.08,1218.52c40.33-27.36,68.85-78.06,78.69-139.22c4.92-27.36,6.89-49.89,4.92-49.89s-28.52,20.92-59.02,45.87
		c-61.97,52.31-81.64,83.69-81.64,131.17C586.03,1245.07,600.79,1248.29,643.08,1218.52z M1136.84,1181.5
		c0-16.09-20.66-39.43-34.43-39.43c-17.7,0-17.7,0.8-4.92,27.36C1106.35,1189.55,1136.84,1199.2,1136.84,1181.5z M505.38,1104.25
		c104.26-45.87,161.31-92.54,188.85-153.7c26.56-55.53,38.36-138.41,20.66-138.41c-6.89,0-46.23,11.27-87.54,25.75
		c-129.83,44.26-197.7,112.66-233.11,233.37c-7.87,28.16-14.75,55.53-14.75,61.16C379.48,1150.92,421.77,1142.07,505.38,1104.25z
		 M1008.97,1076.89c0-18.51-9.84-49.89-21.64-69.21c-21.64-34.6-124.92-135.19-132.78-128.75c-8.85,7.24,18.69,116.68,38.36,148.87
		c17.7,31.38,84.59,82.08,108.19,82.08C1005.04,1109.88,1008.97,1094.59,1008.97,1076.89z M1089.63,1024.58
		c-3.93-17.7-20.66-35.41-32.46-35.41c-11.8,0-10.82,10.46,0.98,36.21C1068.97,1049.53,1094.55,1048.72,1089.63,1024.58z
		 M1097.5,918.36c0-24.14-64.92-124.73-97.37-151.29c-16.72-13.68-61.97-38.63-100.33-55.53l-70.82-30.58l6.89,31.38
		c12.79,54.72,60,126.34,103.28,158.53C1008.97,922.38,1097.5,948.94,1097.5,918.36z M490.63,827.43
		c116.06-55.53,176.06-108.64,208.52-183.47c13.77-33.8,13.77-33.8-7.87-28.16c-108.19,26.56-231.14,111.05-275.4,189.91
		C372.59,881.34,375.55,882.15,490.63,827.43z M1026.68,695.45c4.92-32.99-58.03-131.17-129.83-203.59
		c-33.44-34.6-68.85-70.81-77.7-82.08c-20.66-24.14-20.66-21.73-1.97,20.12c7.87,17.7,13.77,49.09,14.75,69.21
		c0.98,81.28,46.23,150.48,130.82,201.18C1008.97,727.64,1022.74,726.84,1026.68,695.45z M436.53,644.76
		c103.28-29.77,171.14-66.79,208.52-112.66c30.49-38.63,59.02-103,59.02-136c0-20.92-1.97-20.92-104.26,2.41
		c-95.41,20.92-174.09,79.67-226.22,169.79c-28.52,50.7-41.31,98.98-25.57,98.98C353.91,667.29,393.25,656.83,436.53,644.76z
		 M947.01,428.29c-48.2-53.11-85.57-82.08-85.57-64.38c0,13.68,107.21,113.46,116.06,107.03
		C979.47,468.52,966.68,449.21,947.01,428.29z"/>
	<path d="M432.59,1072.06c12.79-42.65,65.9-122.32,95.41-142.43c35.41-24.95,103.28-57.13,133.77-64.38
		c20.66-5.63,20.66-4.02,11.8,20.92c-15.74,45.06-56.06,106.22-84.59,128.75c-29.51,22.53-138.69,78.86-153.44,78.86
		C430.63,1093.79,429.64,1084.13,432.59,1072.06z"/>
	<path d="M981.43,864.44c-29.51-16.9-59.02-41.04-69.83-58.74c-26.56-42.65-33.44-65.99-20.66-65.99
		c17.7,0,99.34,65.99,129.83,103.81C1066.02,902.26,1058.15,906.29,981.43,864.44z"/>
	<path d="M931.27,639.93c-28.52-24.14-47.21-49.09-60-82.08c-9.84-25.75-15.74-49.09-13.77-50.7
		c11.8-9.66,131.8,139.22,131.8,163.36C989.3,682.58,970.61,672.92,931.27,639.93z"/>
	<path d="M403.09,590.84c21.64-41.04,66.88-90.13,105.24-113.46c33.44-20.12,135.73-54.72,143.6-48.28
		c8.85,7.24-43.28,82.89-76.72,110.25c-32.46,26.56-108.19,61.16-164.26,75.64C388.33,620.62,388.33,620.62,403.09,590.84z"/>
	<path d="M2269.93,1380.26c-18.69-10.46-64.92-28.16-103.28-37.82c-63.93-17.7-88.52-19.31-242.95-19.31
		c-150.49,0-181.96,2.41-250.81,18.51c-43.28,10.46-93.44,25.75-112.13,34.6c-38.36,18.51-46.23,14.48-55.08-26.56
		c-6.89-28.97-5.9-29.77,31.47-37.82c182.95-40.24,391.47-57.13,512.45-41.84c80.65,10.46,243.93,50.7,272.45,67.6
		c16.72,10.46,16.72,14.48,5.9,37.02C2312.22,1404.4,2312.22,1404.4,2269.93,1380.26z"/>
	<path d="M2258.13,1286.11c-122.95-40.24-189.83-49.89-329.5-50.7c-131.8,0-242.95,13.68-366.88,45.06
		c-33.44,8.05-64.92,13.68-69.83,11.27c-4.92-2.41-11.8-17.7-14.75-33.8c-3.93-15.29-8.85-32.99-11.8-38.63
		c-2.95-7.24,18.69-16.09,66.88-27.36c123.93-30.58,266.55-45.06,439.66-45.06c177.05-0.8,157.37-5.63,208.52,53.11
		c15.74,17.7,16.72,17.7,42.29,4.02c25.57-14.48,27.54-13.68,94.42,11.27c38.36,14.48,68.85,29.77,68.85,33.8
		c0,22.53-25.57,61.96-39.34,61.16C2338.78,1310.25,2298.45,1298.99,2258.13,1286.11z"/>
	<path d="M2341.73,1192.76c-32.46-12.07-60.98-22.53-62.95-24.14c-6.89-4.02,47.21-90.93,56.06-90.93
		c10.82,0,114.1,24.95,119.01,28.16c4.92,4.83-39.34,108.64-46.23,108.64C2403.7,1214.49,2374.19,1204.84,2341.73,1192.76z"/>
	<path d="M1441.75,1151.72c-16.72-51.5-22.62-48.28,153.44-78.06c21.64-3.22,34.43-0.8,43.28,8.05c16.72,16.9,55.08,15.29,77.7-3.22
		c9.84-8.05,27.54-17.7,37.38-20.12c34.43-8.85,259.67-20.12,308.85-15.29c45.24,4.02,48.2,6.44,58.03,33.8
		c4.92,16.09,9.84,31.38,9.84,33.8c0,3.22-85.57,7.24-188.85,9.66c-189.83,4.02-354.09,22.53-448.51,49.09l-40.33,12.07
		L1441.75,1151.72z"/>
	<path d="M2180.42,1152.53c-34.43-62.77-51.15-152.9-55.08-300.16l-3.93-148.87l13.77,116.68c15.74,123.93,33.44,182.67,63.93,205.2
		c53.11,39.43,91.47-18.51,96.39-146.46c3.93-82.89,0.98-100.59-31.47-205.2c-18.69-63.57-39.34-132.78-44.26-155.31l-9.84-40.24
		l4.92,47.48c2.95,25.75,18.69,88.52,34.43,139.22c37.38,124.73,46.23,215.66,24.59,284.06c-19.67,61.96-36.39,80.47-60,64.38
		c-26.56-17.7-43.28-88.52-55.08-241.41c-11.8-145.65-7.87-455.47,5.9-484.44c16.72-34.6,54.1-9.66,83.6,55.53
		c120,263.14,134.75,587.44,33.44,752.41c-28.52,46.67-60,78.86-77.7,78.86C2197.14,1174.26,2187.31,1164.6,2180.42,1152.53z
		 M2206,428.29c-2.95-8.05-4.92-3.22-4.92,9.66c0,13.68,1.97,19.31,4.92,14.48C2207.96,446.8,2207.96,435.53,2206,428.29z"/>
	<path d="M1414.21,1060.79c-4.92-10.46-11.8-32.19-15.74-48.28l-5.9-28.97l51.15-4.83c28.52-2.41,72.79-7.24,97.37-10.46l45.24-4.83
		l6.89,29.77c3.93,16.09,8.85,33.8,11.8,39.43c2.95,7.24-20.66,14.48-75.74,24.14c-43.28,8.05-85.57,16.09-93.44,18.51
		C1427.98,1077.69,1419.13,1072.06,1414.21,1060.79z"/>
	<path d="M2405.66,1064.01c-29.51-6.44-58.03-14.48-61.97-17.7c-8.85-7.24,15.74-94.15,25.57-92.54c3.93,0.8,36.39,5.63,71.8,11.27
		c51.15,8.05,62.95,12.88,59.02,23.34c-2.95,7.24-9.84,28.16-15.74,46.67c-5.9,18.51-13.77,35.41-17.7,37.02
		C2462.71,1073.67,2435.17,1070.45,2405.66,1064.01z"/>
	<path d="M1640.44,1027.8c-43.28-73.23-52.13-212.44-26.56-412.82c7.87-63.57,18.69-123.93,23.61-133.58
		c3.93-10.46,9.84,66.79,13.77,191.52c3.93,115.88,11.8,228.54,17.7,251.07c12.79,49.89,34.43,67.6,24.59,20.12
		c-27.54-135.19-41.31-621.24-17.7-640.55c19.67-16.09,27.54,1.61,40.33,90.13c38.36,278.43,40.33,535.13,4.92,619.63
		C1696.5,1072.86,1668.96,1077.69,1640.44,1027.8z"/>
	<path d="M1752.56,1006.88c17.7-57.13,12.79-54.72,133.77-65.99c60.98-4.83,133.77-8.05,160.32-6.44l49.18,2.41l2.95,40.24
		l2.95,40.24h-116.06c-63.93,0-143.6,2.41-178.03,5.63l-60.98,6.44L1752.56,1006.88z"/>
	<path d="M1378.8,932.04c-13.77-58.74-20.66-54.72,133.77-67.6l55.08-4.02l6.89,32.99c3.93,17.7,3.93,34.6,0.98,37.02
		c-4.92,4.02-153.44,25.75-179.01,26.56C1390.6,956.98,1382.74,945.72,1378.8,932.04z"/>
	<path d="M2427.3,935.26l-61.97-12.07l2.95-41.04l2.95-41.84l59.02,2.41c86.56,4.02,93.44,6.44,92.46,36.21
		c-0.98,34.6-11.8,64.38-23.61,66.79C2493.2,946.52,2461.73,941.69,2427.3,935.26z"/>
	<path d="M1778.14,879.73c2.95-45.06,3.93-46.67,35.41-53.11c17.7-4.02,85.57-5.63,152.46-4.83l120,2.41l2.95,41.04l2.95,41.04
		l-111.15,4.83c-60.98,3.22-132.78,7.24-158.36,10.46l-47.21,5.63L1778.14,879.73z"/>
	<path d="M1363.06,812.94v-31.38l76.72-4.83c41.31-3.22,87.54-7.24,103.28-8.85c25.57-3.22,26.56-2.41,26.56,31.38v34.6l-51.15,5.63
		c-28.52,2.41-75.74,4.83-103.28,4.83h-52.13V812.94z"/>
	<path d="M2399.76,814.55c-29.51-3.22-30.49-4.83-32.46-47.48l-1.97-43.45h38.36c21.64,0,59.02,2.41,84.59,4.83l45.24,5.63v42.65
		v43.45l-51.15-1.61C2453.86,818.57,2416.48,816.16,2399.76,814.55z"/>
	<path d="M1780.1,792.82c-2.95-6.44-3.93-23.34-1.97-37.82c2.95-24.95,5.9-27.36,47.21-33.8c55.08-8.05,254.75-1.61,268.52,9.66
		c4.92,4.02,6.89,19.31,2.95,34.6l-5.9,26.56h-120c-66.88,0-135.73,2.41-153.44,5.63C1793.87,802.48,1784.04,800.87,1780.1,792.82z"
		/>
	<path d="M1363.06,710.74V669.7l66.88-4.83c36.39-3.22,85.57-5.63,109.18-5.63h43.28l-6.89,37.82c-2.95,20.12-6.89,38.63-8.85,39.43
		c-0.98,0.8-47.21,4.83-102.29,8.85l-101.31,7.24V710.74z"/>
	<path d="M1776.17,673.73c0-19.31,3.93-21.73,45.24-27.36c51.15-5.63,235.08,0,262.62,8.85c8.85,3.22,16.72,13.68,16.72,23.34
		c0,16.9-2.95,16.9-162.29,16.9h-162.29V673.73z"/>
	<path d="M2393.86,693.84c-22.62-3.22-27.54-8.05-27.54-24.95c0-12.07-2.95-29.77-5.9-39.43c-5.9-18.51-4.92-18.51,83.6-18.51h89.51
		v31.38c0,17.7,2.95,37.02,5.9,44.26c4.92,11.27-2.95,12.88-56.06,12.07C2448.94,697.87,2408.61,695.45,2393.86,693.84z"/>
	<path d="M1374.87,609.35l2.95-26.56l106.23-2.41c98.36-2.41,105.24-0.8,105.24,13.68c0,38.63-5.9,41.04-115.08,41.04h-102.29
		L1374.87,609.35z"/>
	<path d="M1916.82,621.42l-140.65-3.22l-5.9-20.12c-3.93-11.27-2.95-22.53,0-25.75c9.84-7.24,242.95-12.88,296.06-6.44
		c42.29,5.63,44.26,6.44,44.26,33.8c0,24.95-1.97,27.36-26.56,25.75C2068.29,624.64,1993.54,622.22,1916.82,621.42z"/>
	<path d="M2347.63,557.85c-20.66-61.16-17.7-65.18,51.15-74.84c98.36-13.68,103.28-12.88,114.1,21.73
		c5.9,16.09,10.82,39.43,10.82,52.31c0,20.92-1.97,21.73-46.23,21.73c-26.56,0-63.93,2.41-83.6,4.83
		C2359.44,588.43,2357.47,587.62,2347.63,557.85z"/>
	<path d="M1392.57,536.93c0.98-10.46,8.85-31.38,17.7-46.67l16.72-28.16l89.51-2.41l89.51-2.41l-7.87,38.63
		c-3.93,20.92-7.87,43.45-7.87,49.09c-0.98,7.24-27.54,9.66-99.34,9.66C1395.52,554.63,1392.57,553.82,1392.57,536.93z"/>
	<path d="M1762.4,511.98c-2.95-13.68-2.95-26.56,0-28.97c6.89-5.63,323.6-12.07,341.3-6.44c8.85,2.41,11.8,13.68,8.85,31.38
		l-3.93,27.36h-170.16H1768.3L1762.4,511.98z"/>
	<path d="M2316.16,442.77c-4.92-11.27-10.82-24.95-13.77-30.58c-4.92-11.27,6.89-14.48,87.54-25.75
		c62.95-9.66,60.98-10.46,89.51,32.19l13.77,20.92l-83.6,12.07l-84.59,12.07L2316.16,442.77z"/>
	<path d="M1753.55,427.48c-2.95-12.07-0.98-24.14,4.92-26.56c16.72-8.85,218.36-16.9,269.5-11.27c88.52,8.85,92.46,10.46,92.46,34.6
		v21.73l-180.98,1.61l-180.98,1.61L1753.55,427.48z"/>
	<path d="M1533.22,427.48c-39.34-1.61-71.8-5.63-71.8-8.85c0-12.07,85.57-71.62,126.88-89.32l41.31-16.9l-6.89,42.65
		C1609.94,433.12,1612.89,429.9,1533.22,427.48z"/>
	<path d="M1741.74,355.06c-14.75-32.19-9.84-33.8,125.9-32.99c152.46,0.8,256.72,13.68,260.65,31.38
		c1.97,10.46-23.61,12.07-188.85,12.07C1785.02,366.33,1745.68,363.91,1741.74,355.06z"/>
	<path d="M2287.63,367.13c0-3.22-8.85-23.34-19.67-45.87l-19.67-40.24l27.54,4.83c46.23,8.85,118.03,36.21,134.75,51.5
		c14.75,12.88,13.77,14.48-6.89,18.51C2359.44,364.72,2287.63,371.15,2287.63,367.13z"/>
	<path d="M2095.83,311.61c-15.74-4.02-103.28-9.66-193.77-12.07c-159.34-4.83-195.73-11.27-137.7-24.14
		c32.46-8.05,352.12-8.85,360.98-0.8c3.93,2.41,4.92,13.68,2.95,24.14C2125.34,316.43,2122.39,318.04,2095.83,311.61z"/>
</g>
</svg>
