<?xml version="1.0" encoding="utf-8"?>
<!-- Generator: Adobe Illustrator 27.8.1, SVG Export Plug-In . SVG Version: 6.00 Build 0)  -->
<svg version="1.1" id="Layer_1" xmlns="http://www.w3.org/2000/svg" xmlns:xlink="http://www.w3.org/1999/xlink" x="0px" y="0px"
	 viewBox="0 0 259 246" style="enable-background:new 0 0 259 246;" xml:space="preserve">
<g transform="translate(0.000000,246.000000) scale(0.100000,-0.100000)">
	<g>
		<g>
			<path d="M1757.54,841.56c1.02,1,2.23,1.61,3.59,1.9c-0.58,1.11-1.17,2.26-1.76,3.41l-5.47,3.24c-0.3-1.26-0.57-2.56-0.77-3.94
				L1757.54,841.56z"/>
			<path d="M662.33,162.77c121,8,363,4,710-10c84-4,253-1,385,6c130,7,367,16,526,19l290,6l-90,17c-138,27-266,39-403,37
				c-68,0-126,2-130,5c-3,4,0,12,7,19c9,9,91,13,304,16c324,5,313,15-30,27l-211,7l14,40c27,76,11,205-33,273c-20,31-66,48-113,41
				c-39-5-40-4-46,31c-4,21-35.3,67.37-42.3,100.37l-1.26,1.32c0.1,5.91-1.16,15.25-3.46,27.1l3.01-1.79
				c-1.07,0.8-2.08,1.54-3.12,2.3c-14.8,75.94-71.42,254.18-86.88,311.7c-18,62-17,64,3,110c14,31,21,68,21,113l1,68h32
				c17,0,35,5,38,10c9,15,25,2,25-21c0-98,126-121,213-38c23,21,49,39,58,39c31,0,86,74,98,132c28,133-37,264-233,466
				c-176,182-302,239-449,201c-39-9-48-7-122,27c-44,20-91,40-105,45c-26,9,46,4,103-7c44-9,31,14-15,27c-24,6-52,15-63,19
				c-18,8-17,9,7,9c40,1,43,19,4,26c-44,9-162-10-229-35c-62-24-63-24-48-6c9,11,9,15-1,18c-6,2,12,16,42,31c54,27,54,27,19,27
				c-18,0-63-15-98-32c-35-18-92-58-127-90c-36-32-67-58-69-58c-3,0,1,13,10,30c48,93-16,36-102-90c-57-83-59-85-104-90
				c-142-17-300-219-426-542c-27-71-36-112-40-173c-5-98,8-130,52-130c24,0,42-13,85-58c30-32,56-54,58-49c1,5,24-2,49-15
				c26-12,55-23,66-23c25,0,87,62,87,87c0,13,12,23,38,32c20,7,52,24,69,38l32,24l6-28c25-116,133-212,282-252l41-11l-5-43
				c-8-57-25.81-69.5-33-82c-3.97-6.9-14.38-29.42-19.93-49.71c-15.02-22.26-28.87-54.46-27.07-83.29l2-56l-46,3
				c-82,4-151-37-192-114c-16-30-21-58-21-112v-71l-126-6c-211-11-228-23-34-25c135-1,173-4,177-15c4-10-19-15-111-21
				c-221-14-239-22-56-24c137-1,174-4,190-17c17-14,13-15-56-10c-41,3-154,8-250,10l-175,5l105-13c58-8,154-19,215-26
				c60-7,118-16,129-20c25-9-159-22-317-22c-100,0-109-2-82-13c88-37,666-65,1310-63l450,1l-440,8c-444,8-913,25-1015,38
				C539.33,153.77,547.33,155.77,662.33,162.77z M874.33,358.77c-8-25-14-36-15-25c-1,28,22,103,26,85
				C887.33,410.77,882.33,383.77,874.33,358.77z M1332.33,176.77c-47,7-45,7,41,13c50,3,97,6,106,7c9,1,44-1,78-4c33-4,61-11,61-15
				C1618.33,166.77,1399.33,165.77,1332.33,176.77z M2368.33,206.77l105-13l-94-3c-87-3-288,21-301,35
				C2071.33,233.77,2241.33,222.77,2368.33,206.77z M2083.33,198.77l70-7l-101-1c-55-1-150-4-210-6c-107-5-108-5-21,3
				c48,4,90,11,94,14C1923.33,209.77,1988.33,208.77,2083.33,198.77z M1876.33,621.77c38,11,57,1,81-41c29-53,39-152,21-207l-13-38
				l-13,38c-16,49-39,71-32,33c8-44-9-33-28,19c-17,43-19,45-25,23c-4-14-7,18-8,72C1858.33,604.77,1860.33,617.77,1876.33,621.77z
				 M1755.33,854.77c1.39-2.75,2.72-5.34,4.04-7.89l5.55-3.29c-1.39,0.21-2.63,0.13-3.78-0.12c2.37-4.56,4.6-8.76,6.72-12.68
				l-10.31,10.77c-3.3-3.24-4.8-10.42-4.38-22.69c-0.95,9.6-1.23,19.35-0.04,27.3l-9.72,10.16l10.49-6.22
				C1754.29,851.78,1754.75,853.36,1755.33,854.77z M1756.89,794.05c0.34-1.21,0.69-2.48,1.01-3.64
				C1762.57,771.75,1759.92,778.65,1756.89,794.05z M1715.33,1796.77c-3-7-5-2-5,12c0,14,2,19,5,13
				C1717.33,1814.77,1717.33,1802.77,1715.33,1796.77z M1725.33,1731.77c-3-10-5-4-5,12c0,17,2,24,5,18
				C1727.33,1754.77,1727.33,1740.77,1725.33,1731.77z M595.33,1361.77c-3-10-5-4-5,12c0,17,2,24,5,18
				C597.33,1384.77,597.33,1370.77,595.33,1361.77z M798.33,1146.77c-48,58-59,105-44,182c16,78,26,100,62,146c42,53,93,84,200,120
				c88,30,93,33,56,34c-22,0-62-6-87-14c-50-15-55-12-32,18c29,38,11,140-26,151c-61,20-108-131-55-178l23-21l-57-37
				c-32-20-65-47-74-60c-9-13-16-19-16-14c0,6,7,19,15,29c28,36,14,41-15,6c-34-39-36-37-14,16c15,36,15,37-2,24c-9-8-25-33-35-55
				c-12-26-19-33-19-20c0,11,14,49,30,83c17,35,30,66,30,69c0,15-40-33-56-65c-13-27-19-32-22-19c-5,22,15,83,40,125
				c11,17,15,32,9,32c-11,0-43-44-56-75c-5-13-9-16-12-7c-3,7,9,42,26,79c35,74,35,94-1,39c-13-20-26-36-30-36c-9,0,11,68,33,112
				c25,49,24,61-1,23c-24-36-25-24-4,38c24,69,13,76-30,19c-40-55-74-131-114-257c-23-74-25-95-26-277c-1-195-7-231-35-213
				c-14,8-76,104-96,148l-15,32l6-40c3-21,12-52,21-68c9-18,10-26,3-22c-7,4-22,30-35,57c-22,48-24,49-27,22l-4-29l-12,25
				c-6,14-16,44-22,68c-11,44-30,49-30,6c0-33-16-31-23,3c-12,65,69,282,165,441c50,84,153,203,192,224c12,7,35,11,52,10
				c22-2,42,6,62,23c27,23,31,24,34,8c3-13,11-4,27,29c23,47,107,136,191,202c25,20,47,36,49,36c2,0-18-25-44-55c-26-31-46-58-44-59
				c2-2,32,13,67,34c99,60,232,67,289,14c14-13,34-24,43-24c9,0,50-18,91-39c71-38,75-39,103-24c43,23,126,11,205-29
				c77-38,243-193,322-300c54-72,99-171,99-215c-1-24-2-25-11-10c-17,28-24,20-38-43c-8-33-17-60-22-60s-9,5-9,11c0,24-24-8-56-75
				c-19-39-32-62-28-51c12,41,16,95,7,95c-5,0-15-17-21-39c-13-42-35-66-51-56c-17,10-31,76-31,146c0,81-39,222-82,299
				c-32,56-116,170-127,170c-3,1-28,21-55,45c-31,28-53,42-59,36c-5-5-16-7-23-4c-30,11-13-37,22-64c49-38,65-73,119-252
				c5-16,4-21-4-17c-8,5-10-5-5-36c5-35,4-41-7-30c-20,18-31,14-19-7c14-27,13-36-4-22c-18,15-30-11-13-28c7-7-8-3-33,8
				c-73,33-220,27-220-9c0-4,14-4,31-2c52,8,153-26,200-66c51-44,89-121,89-183c0-92-102-240-200-289c-80-41-207-70-301-70
				C1025.33,1018.77,857.33,1074.77,798.33,1146.77z M1668.33,1110.77c0-5-14-19-31-31l-31-23l23,31
				C1651.33,1117.77,1668.33,1127.77,1668.33,1110.77z M1271.33,911.77c-13-2-35-2-50,0c-16,2-5,4,22,4
				C1271.33,915.77,1283.33,913.77,1271.33,911.77z M1039.33,839.77c13,46,23,85,24,87c1,1,19-4,41-12l39-15h-33c-19-1-31-5-27-11
				c13-22,192-7,315,26c52,14,3-17-66-41c-74-27-61-33,22-11c118,31,226,103,287,190c21,30,37,34,37,9
				c0-15.17,53.55-179.88,76.15-259.13c4.56-39.12,20.48-110.31,49.85-230.87c4-39,3-92,0-117c-7-41-10-46-34-47c-15,0-43-6-62-13
				c-34-13-34-13,43-19c43-3,89-12,101-20c29-19,63-104,47-120c-7-7-12-6-17,6c-9,23-24,21-24-3c0-13-7-20-20-20c-15,0-20,7-20,24
				c0,23-23,56-39,56c-4,0-5-16-3-35c6-49-23-60-52-20l-20,29l-6-25c-5-20-12-24-39-22c-18,0-38,9-45,19c-8,10-18,14-25,10
				c-8-5-14,0-18,13c-3,11-10,18-15,15s-7-12-4-20c3-8,1-14-3-14c-22,0-20,38,6,88c27,53,28,62,28,196c0,123-3,148-23,197
				c-12,30-29,64-37,75c-15,18-15,15-9-35c5-42,3-52-6-46c-10,6-12-1-6-31c30-174,30-181,13-253c-25-101-39-130-32-66l4,50l-18-50
				c-15-38-20-44-21-25c-1,24-2,23-19-9c-15-27-19-30-24-16c-4,9-7,29-7,43c0,15-5,34-11,42c-7,11-8-2-4-45c5-43,3-56-4-45
				c-6,8-11,23-11,32c0,9-7,21-17,26c-11,7-18,28-21,67c-3,33-8,52-13,44c-12-21-22,56-16,130c3,36,3,60,0,54c-11-30-20-9-15,37
				c8,90-28,50-47-51c-4-26-4-96,0-155c6-67,5-112-1-118c-6-6,7-19,34-37c48-30,79-90,57-112c-8-8-11-4-11,14c0,29-17,53-44,63
				c-15,5-17,3-11-11c13-30,18-83,8-83c-5,0-20,11-33,25c-30,32-44,32-36,0c5-21,3-25-16-25c-12,0-30,7-40,17c-17,15-18,15-18-5
				c0-26-26-20-33,9c-7,25-27,24-27-2c0-14-5-19-17-17s-17,11-15,26c4,26-13,29-26,6c-8-14-10-14-15-1c-3,8,3,32,14,53
				c16,33,17,47,9,94c-6,30-14,107-19,170c-5,63-2.5,116.56-8.5,131.56c2.34,4.24,3.57,7.86,4.02,10.96
				C1008.21,730.19,1022.87,776.46,1039.33,839.77z M797.33,572.77c27,26,62,38,129,45c8,1,12-16,11-56c0-51-2-55-12-34
				c-11,23-11,22-23-15c-8-27-12-32-13-17c-2,40-18,33-24-10c-2-23-14-62-25-87l-21-45v33c-1,18,6,47,15,63c8,17,13,33,11,35
				c-4,4-10-7-45-86l-11-25l-1,25c-1,23-2,23-10,5c-8-19-9-19-9-1c-1,15-4,16-16,6c-13-11-15-6-15,34
				C738.33,496.77,754.33,531.77,797.33,572.77z"/>
			<path d="M1362.5,1927c14,0,28-7,31-15c6-16,34-21,34-6c0,14-41,61-54,61c-6,0-17-5-24-12C1330.5,1936,1335.5,1927,1362.5,1927z"
				/>
			<path d="M842.5,1887c-8,0-25-15-39-33c-29-38-43-91-27-101c5-4,17,6,25,22c8,16,27,44,41,61C868.5,1867,868.5,1887,842.5,1887z"
				/>
			<path d="M1366.5,1687c46,0,61,103,21,145c-26,28-39,31-63,13C1265.5,1799,1294.5,1687,1366.5,1687z"/>
			<path d="M1220.5,1190c6,17,9,17,29,3c29-20,72-20,88-1c18,22,5,30-27,16c-41-19-75,11-89,80c-10,51-9,55,10,63c56,23,71,33,88,61
				c23,38,23,96,1,124c-22,26-99,40-160,30c-45-8-113-40-130-61c-15-18-10-93,8-114c19-24,71-44,112-44c32,0,35-3,41-37
				c10-66,7-128-10-151c-8-12-11-22-6-22C1187.5,1137,1212.5,1167,1220.5,1190z"/>
		</g>
	</g>
</g>
</svg>
