<?xml version="1.0" encoding="utf-8"?>
<!-- Generator: Adobe Illustrator 27.8.1, SVG Export Plug-In . SVG Version: 6.00 Build 0)  -->
<svg version="1.1" id="Layer_1" xmlns="http://www.w3.org/2000/svg" xmlns:xlink="http://www.w3.org/1999/xlink" x="0px" y="0px"
	 viewBox="0 0 786 787" style="enable-background:new 0 0 786 787;" xml:space="preserve">
<path d="M464.3,740.4c-2.7-1.7-4.3-7.1-4.3-14.9c0-5.7-1.2-9.2-5.5-16.5c-1.6-2.7-1.4-7.2,1-21.5c0.7-4.4,1.7-10.8,2-14.3l0.7-6.4
	l6.7-4.3c9.5-6.1,10.5-8.4,9.6-23.4l-0.6-11.6l4.9-2.7c9.1-4.9,10.6-13,5.7-31.9c-5.6-21.8-13.7-40.5-25.1-58c-3-4.6-5.4-8.6-5.4-9
	c0-1.3,2.6-2.7,7-3.9c7-1.9,9.8-3.7,12-7.9c1.8-3.6,2.5-4.1,7.7-5.1c19.3-3.9,40.2-10.9,50.5-17c3.7-2.2,7-4.5,7.3-5
	c1-1.7,4.3-1.1,4.9,0.8c1.1,3.2,4.9,6,12.1,8.7c9.7,3.7,16.4,3.6,24.9-0.3c11.2-5.2,17.4-12.4,22.6-26.4c2.3-6.3,4.5-7.8,7.2-5
	c1.7,1.6,1.7,2.3,0.7,7c-1,4.1-1,5.5,0,6.5c2,2,9.7-2.9,18.6-11.8c12.6-12.4,19-27.7,20.2-48c0.6-11.9,1.1-12.5,9.9-12.5
	c7.5,0,15.3,1.7,29.3,6.5c13.9,4.7,14.1,4.6,14.1-1.3c0-7-1.7-16.9-4-24.1c-3.3-10.6-12.4-28.1-18.5-35.9c-3.2-4.2-5.4-7.9-5.1-8.7
	c0.3-0.8,4.7-3.5,9.8-6.1c13.2-6.6,20.1-11.6,29.5-21c13.5-13.6,19.9-25.3,22.8-42c2.3-13.3,1.8-28.4-0.9-28.4c-0.6,0-2.4,2.5-4,5.6
	c-6.1,11.6-15.4,20.5-30.9,29.6c-12.9,7.5-33,13.2-39.2,11.1l-2.8-0.9l7.2-7c11.7-11.2,22.2-25,20.4-26.8c-0.4-0.3-5-0.6-10.2-0.6
	c-9.3,0-9.8-0.1-14.6-3.4c-2.8-1.8-9-7.1-14-11.6c-19.4-17.8-38.3-32.1-56.5-42.6c-7.7-4.4-12-8.8-12-12.2c0-2.5-6-16.9-9.4-22.5
	l-3.4-5.7l-1.1-22.7c-1.8-36.7-6.6-52.2-20.5-66.3C524.9,48.1,493,37,419.5,25.3c-14.1-2.2-19.5-2.6-46-2.8
	c-16.5-0.1-31.8-0.1-34,0.1C311.6,25.4,282,33,260.7,42.8c-22.4,10.4-34.4,23.1-39.2,41.7c-3.2,12.3-2.9,39.3,0.6,66.9
	c0.8,6.3,0.7,9.2-0.5,14.5c-0.8,3.6-1.8,8.7-2.1,11.2c-0.6,4.5-0.9,4.9-11.8,13.5c-24.8,19.7-47,40-54.6,49.8
	c-2.2,2.8-6.4,10.1-9.5,16.3c-3.1,6.2-6.6,11.9-7.9,12.7c-3.9,2.6-16.1,3.7-31.9,3c-14.1-0.6-14.8-0.6-14.8,1.2
	c0,4.3,20.3,21.5,35.3,29.8c3.3,1.9,4.7,3.3,4.7,4.8c0,1.4-3.6,5.7-10.2,12.3c-17.3,17-33.8,28.4-51.2,35.2
	c-10.1,4-12.2,5.4-11.2,7.8c0.8,2.3,25.5,13.8,35.3,16.5c8.9,2.4,14.3,5.2,14.3,7.3c0,1.9-4.5,12.7-9,21.6c-6.5,13-16.5,25-29.2,35
	c-7.5,5.8-8.6,8.6-4.1,9.8c1.6,0.5,9.8,0.8,18.3,0.8c17.8,0,26.6-1.6,39.3-7.2c4.3-1.9,8.6-3.3,9.5-3.1c1.5,0.3,1.7,2.5,1.7,23.6
	V491h2.5c3.6,0,18.3-6.8,26.9-12.4c4.1-2.6,8-4.5,8.7-4.2c0.8,0.3,3,3.9,5,8c6,12.7,13.4,17.6,26.6,17.6c8.4,0,16.8-4.1,25.2-12.2
	c3.3-3.2,6.7-5.8,7.6-5.8c0.8,0,4.9,2.1,9,4.5c4.1,2.5,12.2,6.4,18,8.6c12.1,4.7,45.4,13.4,55.3,14.4c7,0.8,7.5,1.2,5.5,4.5
	c-1.6,2.5-0.4,3.8,5.4,6.1c2.3,0.9,4.3,2,4.5,2.5c0.2,0.5-2.2,4-5.3,7.9c-10.9,13.6-20.2,32.9-26,53.8c-1.9,6.9-2.7,12.4-3.1,22.2
	c-0.5,15.8,0.3,17.8,8.8,21c6.4,2.5,6.9,3.9,4.5,14.5c-0.9,3.7-1.3,8.2-1,9.9c0.7,3.5,4.5,7.1,11.3,10.6c8.3,4.3,8,3.7,9.6,18.5
	c0.8,7.4,1.5,16.7,1.5,20.6c0,6.3-0.3,7.3-2.5,9.4c2.75,2.41,2.04,8.11,0.44,10.91c-1.5,2.7,2.44,4.48,1.54,6.18
	c-1,1.6,1.87,5.29,0.77,8.49c-1.1,3.1,2.64,5.58,1.54,6.18 M376.5,51.5c3.1,5.8,5.9,12.2,6.2,14.2l0.6,3.6l-8.9-0.8
	c-4.9-0.5-13.6-0.9-19.4-0.9l-10.5-0.1l0.1-3.5c0.3-5.9,2.7-18,3.6-18c0.5,0,0.7-0.9,0.3-1.9c-0.8-2.5,0.6-2.8,12.7-3l9.6-0.1
	L376.5,51.5z M391.3,41.7c6.3,0.6,6.7,0.7,6.7,3.1v2.4l-8.5-0.7c-4.9-0.4-8.5-0.3-8.5,0.2s-0.6,1.8-1.4,2.8c-1.3,1.8-1.5,1.5-4-3.3
	L373,41h5.7C381.9,41,387.5,41.3,391.3,41.7z M345.4,45.2c-1,5.8-3.7,14.8-4.5,15.3c-0.4,0.3-2.8,0.8-5.3,1.1l-4.6,0.7v-3.8
	c0-3.3-0.7-4.5-4.6-8.3c-3.3-3.1-4.3-4.7-3.5-5.5c1-1,10.2-2.3,18.8-2.6L346,42L345.4,45.2z M417.8,44.1c6.2,0.6,11.4,1.5,11.6,1.8
	c0.3,0.3-0.4,6.5-1.5,13.6c-2.3,15.9-2.4,20.9-0.4,22.5c1.9,1.6,2.2,0.7,2.8-8.1c0.2-3.7,0.7-7.2,1.1-7.7c0.4-0.7,2.4-0.5,5.9,0.7
	l5.2,1.8v7.7c0,7.5,0.1,7.8,2.9,9.3c2.7,1.4,2.8,1.8,2.2,6.1c-0.5,3.5-0.2,5,1,6.4c1.7,1.8,1.7,2.5-0.2,17c-0.4,2.7-0.3,4.8,0.2,4.8
	c1,0,3.5-10.9,4.2-18.3l0.4-4.7h8.8c6.6,0,9.1,0.4,10,1.5c0.7,0.8,2.3,1.5,3.6,1.5c2.8,0,4.2-3.7,2.5-6.8c-0.6-1.2-1.1-6.6-1.1-12.1
	c0-11.4-0.2-11.1,9.3-13.1c4.7-0.9,6.2-1.7,7.6-4.1c1.3-2.2,2-2.6,2.9-1.7c0.7,0.7,1.2,1.7,1.2,2.3c0,0.6,1.4,2.2,3.1,3.4
	c2.4,1.8,3,2.9,2.6,4.7c-0.3,1.8,0.5,3.5,2.9,6.1c1.9,2,3.4,4,3.4,4.4s-4.3,1-9.5,1.4c-8.2,0.6-9.5,0.9-9.5,2.5
	c0,2.3,7.7,3.5,10,1.6c0.8-0.8,2.5-1.7,3.7-2c3.2-1,17.5,2.1,27.8,6c11.1,4.3,11.9,4.7,12.3,6.7c0.3,1.3-1.8,1-12.5-1.9
	c-7-1.9-14.6-3.8-16.8-4.2c-5-1-24.8,0.7-25.7,2.2c-0.4,0.6-0.8,3.8-0.8,7.2c0,3.6-0.6,6.8-1.4,8c-0.8,1-1.1,2.3-0.6,2.9
	c1.1,1.3-0.7,10.6-2.3,12.2c-1,1-4.2,0.9-16.2-0.7c-20.1-2.7-21.3-2.6-22.1,0.5c-0.3,1.4-0.9,2.5-1.3,2.5c-2-0.1-2.6-2.6-2.9-12.7
	c-0.3-9.7-0.2-11.2,1.4-12.1c2-1.1,3.2-0.7-12.2-4.6c-9-2.3-10.5-2.5-13.3-1.3c-3.2,1.4-3.2,2.7,0,2.7c1.2,0,2.1,1,2.5,2.6
	c0.7,2.6-0.3,19.1-1.2,20.6c-0.7,1.1-7.2,1-7.9-0.1c-0.3-0.5-0.1-1.2,0.5-1.6c1.6-1,1.1-6.1-0.7-7.7c-1-0.8-3.1-1.8-4.7-2.2
	c-2.6-0.6-2.8-0.9-2.1-3.9c0.4-1.8,1.1-7.7,1.4-13.2c0.4-7.4,1.1-10.9,2.6-13.3c2.4-4,1.4-6.2-3.6-7.4c-7.9-2-9.1-2.8-8.3-6.2
	c0.3-1.7,1-3.3,1.5-3.6c0.4-0.3,1.1-4.8,1.4-10c0.8-12,0.8-12.1,4.2-11.5C405.2,42.7,411.6,43.4,417.8,44.1z M321,45.8
	c0,0.5-0.8,1.6-1.8,2.6c-1.1,0.9-2.7,4.4-3.7,7.9c-2.2,7.6-2.6,8-5.8,7.2c-1.8-0.5-3.9-2.7-6.6-7.2c-2.3-3.5-4.1-6.8-4.1-7.3
	s2.4-1.3,5.3-1.9c2.8-0.5,6.1-1.2,7.2-1.4C315.1,44.9,321,45,321,45.8z M448.5,49c19.9,3.6,43.5,9.5,43.5,10.9
	c0,0.4-0.6,1.6-1.4,2.6c-1.8,2.6-15.6,3.6-15.6,1.2c0-1.7-3.7-6.7-5-6.7c-1.8,0-2,4-0.4,7.1c1.1,2.3,1.8,6.9,2.2,15.6l0.5,12.3h-9.2
	h-9.2l0.3-2.7c0.2-2.1,1-2.9,3.5-3.5c3.7-1,5-2.5,3.4-4.1s-1.4-2,1.9-6.2c1.7-2.1,3-4.3,3-5c0-0.7-1.9-1.6-4.2-2.1
	c-3.4-0.7-4.4-1.4-4.6-3.2c-0.7-4.5-8.3-5.5-9.7-1.2c-0.8,2.5-1.6,2.5-9.3-0.1c-3.5-1.2-6.2-2.7-6.2-3.4c0-0.8,2-3.1,4.5-5.2
	c2.5-2,4.5-4.1,4.5-4.5c0-1.4-2.1-0.9-5.2,1.3c-2.5,1.8-3.2,1.9-3.9,0.8c-0.5-0.8-0.7-2-0.4-2.7c0.3-0.8,0.5-2.1,0.5-2.9
	c0-1.1,0.7-1.4,2.3-1C435.5,46.6,441.9,47.8,448.5,49z M391.3,50.3c0.9,0.1,1.7,0.7,1.7,1.4s0.5,1.3,1,1.3c0.6,0,1-0.7,1-1.6
	c0-0.9,0.6-1.4,1.3-1.1c1.6,0.5,1.1,5.3-1.4,13.4c-1.7,5.4-2.3,6.3-4.3,6.3c-3,0-3.8-1.1-7.1-9.3c-2.3-5.8-2.6-7.2-1.6-9.4
	c1-2.2,1.6-2.4,4.4-1.8C388.1,49.9,390.3,50.3,391.3,50.3z M299.9,55.9l4.1,6l-1.6,4.3c-1,2.4-2.6,5.3-3.7,6.6
	c-2,2.1-12.1,6.1-13.1,5.1c-1.1-1,0.7-4.7,2.4-5.2c1.3-0.3,2-2.1,2.9-6.9c1.6-9.4,1.5-10.7-1.4-11.8c-3.1-1.2-3.1-1.8-0.2-3
	C294,49.1,295.6,49.8,299.9,55.9z M324.6,55.5c0.9,1.3,1.8,4.2,2.1,6.4l0.6,4l5.8-0.6c5.6-0.5,5.9-0.5,5.9,1.6
	c0,1.9-0.5,2.1-6.4,2.1c-7.8,0-9.8,1.6-7.1,5.6c1.6,2.4,1.6,3.7,0.6,13.1c-0.7,5.7-1.5,11-1.8,11.8c-1.2,3.4-2,0.9-2.9-8.8
	c-0.7-8-1.2-10.2-2.4-10.2c-1.3,0-1.4,1.8-1.1,11.7l0.3,11.8l-2.8,1.1c-6.4,2.4-8.7,2.2-11.8-1c-5.5-5.7-7.1-3.1-3.9,6
	c1.7,4.6,1.7,5,0.1,6.6c-1.6,1.5-2,1.5-5.7-1.2c-6.4-4.4-6.7-4.9-4.8-10.3c1-2.6,1.7-5.5,1.7-6.4c0-2.2-4.2-5-7.2-4.8
	c-3.8,0.3-4.3,0.1-6.1-3l-1.8-3h3.6c2,0,4.6-0.6,5.8-1.4c1.3-0.8,6.5-1.7,12.5-2.1c11.1-0.8,12-1.3,10.8-6.1c-0.4-1.5-1.8-3-3.7-3.8
	l-2.9-1.2l2.3-3.5c2.9-4.4,4.7-4.6,10.7-1.5c2.7,1.4,5.6,2.6,6.5,2.6c2.6,0,1.6-2.5-1.5-3.7c-2.5-0.9-3-1.7-3-4.2
	c0-4.3,2.6-10.1,4.4-10.1C322.3,53,323.7,54.1,324.6,55.5z M286,56.5c3.4,1.8,3.4,1.6,1.9,7c-1.8,7.1-1.6,6.9-4.5,5
	c-1.9-1.2-2.9-1.4-3.7-0.6c-1.9,1.9-4.3,1.2-5.5-1.4c-2.1-4.6-1.5-6.9,2.6-9.3C281.2,54.6,282.2,54.5,286,56.5z M269,62.6
	c1.4,3.7,1.2,5.4-0.7,5.4c-1.9,0-5.3-2.8-5.3-4.5c0-1.5,2.1-3.5,3.7-3.5C267.5,60,268.5,61.2,269,62.6z M513.9,67.9
	c9.6,4.7,11.2,6.3,6.6,6.9c-1.5,0.2-3.1,1.4-3.9,3.1c-3.8,7.2-6.7,6.2-9.3-3.1c-1.1-3.8-2.7-7-4.5-8.6
	C496.8,60.5,499.8,60.9,513.9,67.9z M261.7,67.6l2.1,3.7l-2,6.1c-1.2,3.4-2.3,6.4-2.7,6.8c-0.8,0.9-20.1,1.5-20.1,0.6
	c0-1.1,6.3-9.8,7.1-9.8c0.4,0,1.6,1.5,2.7,3.4c2,3.3,6.2,6.6,6.2,4.8c0-0.5-1.3-2.8-3-5c-1.6-2.3-3-4.8-3-5.6c0-1.6,7.7-8.6,9.5-8.6
	C259.1,64,260.5,65.6,261.7,67.6z M453.8,66.2c-0.3,0.7-1.1,1.3-1.8,1.3c-0.7,0-1.5-0.6-1.7-1.3c-0.3-0.7,0.4-1.2,1.7-1.2
	C453.3,65,454,65.5,453.8,66.2z M275.9,74.5c3.2,3.5,4.1,5.3,3.9,7.3c-0.3,2.6-0.5,2.7-7.7,3c-4.1,0.2-7.8-0.1-8.3-0.6
	c-1.2-1.2,2.9-11.9,5-13.2C271.3,69.6,271.4,69.6,275.9,74.5z M449.2,77.3c0.2,4.7,0,5.7-1.2,5.5c-1.6-0.3-2.7-8.6-1.5-11.6
	C447.5,68.4,448.8,71.3,449.2,77.3z M457,77c0,5.3-0.2,6-2,6c-1.8,0-2-0.7-2-6c0-5.3,0.2-6,2-6C456.8,71,457,71.7,457,77z
	 M353.4,72.6c1,0.4,1.6,1.8,1.6,3.6v2.9l-5.7-0.3c-5.4-0.3-5.8-0.5-5.8-2.8c0-2.1,0.6-2.6,4-3.1c2.2-0.3,4.1-0.7,4.2-0.8
	C351.8,72.1,352.5,72.3,353.4,72.6z M368.8,73c2.1,0,2.2,0.4,2.2,8c0,6.5,0.3,8,1.5,8c2.2,0,3.7-4.6,3.4-10.2
	c-0.2-2.6,0-4.8,0.4-4.8c9.3-0.1,11.7,0.2,13.2,1.6c1.3,1.3,2.1,1.4,3.9,0.6c1.8-0.8,3.3-0.6,6.5,0.9c4,1.7,4.1,2,3.7,5.6
	c-0.3,2.1-0.8,7.5-1.1,12c-0.3,4.6-1,9.5-1.6,10.9l-1,2.7l-9.9-0.6c-9.5-0.6-10-0.5-10,1.3c0,1.8-0.7,2-7.2,1.9
	c-5.4,0-6.7-0.3-5-0.9c1.2-0.5,2.7-2.2,3.3-3.7c1.1-3,0.3-12-1.3-14.1c-1.4-1.7-5.9-1.5-8.6,0.4c-2.9,2-2.9,4.6,0.1,4.4
	c3.8-0.3,4.7-0.1,4.7,1.5c0,0.9-0.9,1.5-2.3,1.5c-1.3,0-2.8,0.5-3.5,1.2c-1.4,1.4-14.1,1.1-15.9-0.4c-0.7-0.6-1.3-3-1.3-5.4
	c0-3.3,0.5-4.6,1.9-5.4c3.1-1.6,8.2-1.2,9.7,0.7c1.3,1.7,1.5,1.6,3.5-1c1.5-2,2.9-2.7,5.4-2.7c1.9,0,3.7-0.4,4-1c1-1.6-1.4-5-3.6-5
	c-3.6,0-5.9-1.9-5.9-4.9c0-3.7,0.9-4.4,5-3.7C364.9,72.7,367.5,73,368.8,73z M340.5,75.8c0.9,2.5-1,3.5-5.4,2.7
	C332,78,331,77.4,331,76C331,72.9,339.3,72.7,340.5,75.8z M529.1,78.6c0.5,1.5,2.1,4,3.5,5.7c1.4,1.6,2.3,3.2,2,3.4
	c-0.7,0.7-18.6-3-18.6-3.7c0-1.7,8.9-8,11.3-8C527.7,76,528.5,77.2,529.1,78.6z M304.8,79.2c-0.5,1.5-7.8,2.4-7.8,0.9
	c0-1.2,1.8-1.9,5.3-2C304.2,78,305,78.4,304.8,79.2z M335.5,81.8c2.4,1.5,3,2.6,3.2,5.8c0.1,2.1,0.5,6,0.8,8.5
	c0.6,4.2,0.5,4.7-1.7,5.2c-1.2,0.4-4.1,0.7-6.2,0.7h-3.9l0.7-8C329.6,79.2,330,78.5,335.5,81.8z M539.8,87.9c1.3,2.3,2,4.1,1.5,4.1
	c-0.9,0-6.3-8.2-6.3-9.5C535,81,537.6,83.9,539.8,87.9z M348.4,83.9c0.3,0.5-0.6,1.2-2,1.5c-2.9,0.8-3.9,0.3-2.9-1.3
	C344.3,82.8,347.7,82.7,348.4,83.9z M359.5,84c1.8,0.8,1.7,0.9-0.7,0.9c-1.6,0.1-2.8-0.4-2.8-0.9C356,82.8,356.8,82.8,359.5,84z
	 M245.3,91.2c-1.4,7.5-7.8,22.2-9.7,22.6c-1.3,0.3-1.6-0.7-1.6-5.6c0-5.4,0.2-5.9,2.3-5.8c2,0.1,2.2-0.4,2.5-5.9
	c0.4-6.7,1.4-8.5,4.8-8.5C245.7,88,245.9,88.3,245.3,91.2z M272.3,89.5c0.2,1.2-7.2,3.8-9,3.1c-0.7-0.3-1.3-1.2-1.3-2
	C262,88.5,271.9,87.4,272.3,89.5z M258.9,92.7c1.4,4.9,1.4,16.9,0.1,19.4c-0.6,1-2,1.9-3.2,1.9c-2,0-2-0.3-1.3-5.8
	c1.2-8.5,1-10-1.9-14c-3-4.2-2.6-5.2,1.9-5.2C257.6,89,258,89.4,258.9,92.7z M527.6,99.9c8.6,2.7,16.3,5.6,17.1,6.4
	c2,1.9,2.7,8.2,1.8,16.2c-0.5,5.4-1,6.6-2.3,6.3c-1.4-0.3-1.6-1.5-1.4-6.8c0.4-7.4-0.4-13-1.8-13c-0.6,0-1,2-1,4.4
	c0,8.4-1.2,13.8-3.2,14.4c-1.2,0.3-1.8,1.4-1.8,3.3c0,2.9,1.5,4,2.2,1.7c0.3-0.9,1.5-1,4.4-0.3c3.4,0.9,3.9,1.4,4.2,4.3
	c0.4,3.7,0.8,3.7-12.2,0c-9.7-2.8-35.6-6-37.3-4.7c-2.7,2.3-3.2,0.2-0.8-3.1c2.7-3.7,5.2-4.7,12.8-4.9c2.6,0,4.7-0.6,4.7-1.1
	c0-1.2-7.2-1.3-12.4,0c-4.8,1.1-6,0.5-4.5-2.2c0.7-1.4,0.8-2.3,0.1-2.7c-0.5-0.3-1.2-1.5-1.4-2.6c-0.3-1.7,0.5-2.1,5.5-2.8
	c3.1-0.5,5.7-1.3,5.7-1.8s-2.7-0.9-6-0.9c-4.4,0-6-0.4-6-1.4c0-1.4,3.9-3.3,7.9-3.8c1.4-0.2,2.6-0.9,2.9-1.6c0.3-0.9-0.8-1.2-3.9-1
	c-3.5,0.2-4.4,0-4.7-1.6c-0.5-2.5,1-3.8,5.5-4.6C509,94.6,512,95,527.6,99.9z M275,98.4c0,2.4-1.7,2.8-2.3,0.6c-0.3-1.3,0-2,0.9-2
	C274.4,97,275,97.6,275,98.4z M267.7,98.6c-0.3,0.3-1.2,0.4-1.9,0.1c-0.8-0.3-0.5-0.6,0.6-0.6C267.5,98,268.1,98.3,267.7,98.6z
	 M286.5,100c0,1-1.2,1.6-3.2,1.8c-3.2,0.3-4.5-1.3-2.6-3.2C282,97.4,286.5,98.4,286.5,100z M244.4,110.1c-3.9,4.3-4.2,0.7-0.6-7
	l1.6-3.6l0.4,4.4C246,106.9,245.6,108.8,244.4,110.1z M253,106.1c0,1.5-0.4,3-0.9,3.3c-1.3,0.9-2.9-3.8-2.3-6.9
	c0.5-2.6,0.6-2.7,1.8-1C252.4,102.5,253,104.6,253,106.1z M432.9,102.1c2.3,0.8,3.1,1.7,3.1,3.6c0,1.3,0.5,3.3,1,4.4
	c0.9,1.6,0.7,1.9-1.4,1.9c-1.4,0-4.8-0.5-7.6-1.1c-4.9-1-5-1.1-5-4.8c0-2.1,0.3-4.1,0.7-4.4C424.7,100.7,429.3,100.9,432.9,102.1z
	 M366.7,104.2c-0.3,0.8-0.6,0.5-0.6-0.6c-0.1-1.1,0.2-1.7,0.5-1.3C366.9,102.6,367,103.5,366.7,104.2z M265.3,108
	c-0.3,1.2-0.8,1.9-1.1,1.6c-0.5-0.6,0.5-3.6,1.2-3.6C265.6,106,265.6,106.9,265.3,108z M284,107.3c0,1.9-2.1,3.7-4.3,3.7
	c-1.3,0-1.7-0.5-1.3-1.6c0.3-0.9,0.6-2,0.6-2.5s1.1-0.9,2.5-0.9S284,106.6,284,107.3z M307,109.9c0,2-3,1.9-4.5-0.2
	c-2.3-3.2-1.8-3.9,1.5-2.2C305.7,108.4,307,109.4,307,109.9z M350.4,107.6c2.6,1,1.8,2.3-1.6,2.8c-18.2,2.6-26.8,4.2-35,6.3
	c-13,3.3-14.4,2.8-6.5-2.4c7.9-5.2,7.7-5.1,17.4-6.8C332.1,106.1,346.8,106.2,350.4,107.6z M274.4,109.5l1.6,2.5h-4.2h-4.1l2.3-2.5
	c1.3-1.4,2.4-2.5,2.6-2.5C272.7,107,273.5,108.1,274.4,109.5z M361.4,108.6c2.5,1,1.9,2.6-0.6,1.9c-3.1-1-4.7-2.5-2.6-2.5
	C359.1,108,360.5,108.3,361.4,108.6z M386.5,110.1c1.1,1.7-0.1,2.1-1.5,0.4c-0.8-0.9-0.8-1.5-0.2-1.5
	C385.4,109,386.2,109.5,386.5,110.1z M252,115.6c0,1.7-2.7,3.7-4,2.9c-1.1-0.7-1.4-6.8-0.3-7.9C248.5,109.8,251.9,113.9,252,115.6z
	 M551.8,124.8c0.4,7.8,0.2,9.4-0.9,9c-1.1-0.4-1.5-3.1-1.6-11.4C549,108.5,551,110.5,551.8,124.8z M434.8,115.6l5.2,1.5v4.4v4.5
	h-5.4c-8.1,0-11.6-0.9-11.6-3.1c0-1.1,0.4-1.9,0.9-1.9s0.7-1.9,0.4-4.1l-0.6-4.2l2.9,0.7C428.2,113.8,431.9,114.8,434.8,115.6z
	 M291.9,118.4c1.8,1.9,2.2,2.9,1.4,3.7c-1.8,1.8-4.6,0.6-6.6-2.8C283.3,113.4,286.7,112.8,291.9,118.4z M284.6,119.2
	c0.8,1.6,1.4,3.6,1.2,4.4c-0.2,0.8-4.6,3.2-10,5.4c-5.3,2.1-14.7,6.3-20.9,9.4c-12.8,6.2-13,6.2-17.8-1.1c-2.8-4.2-3-4.9-1.6-5.9
	c1.9-1.4,2-4.4,0-4.4c-1.1,0-1.5-1.2-1.5-4.6c0-4,0.2-4.5,1.5-3.4c0.8,0.7,1.5,2.1,1.5,3.2c0,1,0.4,1.6,1,1.3
	c0.5-0.3,2.5-0.2,4.5,0.4c3.1,0.8,3.9,0.6,7.6-2.2c2.3-1.8,5-3.8,6-4.5c1.4-1.1,2.2-1.1,4-0.2c1.6,0.9,3.6,0.9,7.8,0.1
	C279.9,114.7,282.5,115.1,284.6,119.2z M391.4,116.6c4.3,0.6,4.6,0.9,4.6,3.5v2.9h-9.4c-10.8,0-14.6-1-14.6-3.9
	c0-1.5,0.8-2.1,3.3-2.4C381,116,386.6,116,391.4,116.6z M409,118c0.9,1.7,0.8,2-1.4,2c-4.1,0-5.8-1-4.5-2.6
	C404.8,115.4,407.8,115.7,409,118z M491.4,125.6c-0.4,3.4-1.2,5.8-2.1,6.1c-2.1,0.8-2.3,0.1-1.4-3.8c0.5-1.9,1.2-5.2,1.6-7.4
	C490.6,114.2,492.3,118.7,491.4,125.6z M350,118.8c0,0.5-1,1.8-2.3,3c-1.8,1.7-3.1,2.1-5.5,1.6c-1.7-0.4-3.7-1.2-4.3-2
	c-1.1-1.3-1.2-1.3,5.6-2.7C347.1,117.9,350,118,350,118.8z M359,119.3c0,1.9-7.7,9-8.9,8.3c-3.1-2,1.7-9.5,6.2-9.5
	C357.9,118,359,118.5,359,119.3z M334.1,122c2.7,1.5,2.4,2.6-1,4c-2.3,0.9-3.3,0.9-4.9-0.1c-1.7-1-2.4-1-4.6,0.4
	c-1.4,1-2.6,2.6-2.6,3.7c0,2.4-1.5,2.7-2.4,0.5c-0.8-2.1-5.2-1-9,2.2c-2.1,1.7-3.2,2.1-4.1,1.3c-0.8-0.7-1.5-0.7-1.9-0.1
	c-1,1.6,0.5,4.1,2.6,4.1c3.7,0,1.2,2.4-3.8,3.7c-7.9,2.1-8.9,1.8-10.2-2.6c-0.7-2.1-1.2-4.3-1.2-4.9c0-1.4,5.8-3.5,23.7-8.7
	C331.4,120.6,331.4,120.6,334.1,122z M361,130c0,5.2-0.3,6-1.8,6c-1.1,0-2.4-1.1-3-2.5c-0.6-1.4-1.6-2.5-2.2-2.5
	c-2.2,0-0.8-2.9,2.3-4.9c1.7-1.1,3.5-2.1,4-2.1C360.7,124,361,126.7,361,130z M467.5,127.5c16.3,2.2,16.6,2.3,14.6,5.3
	c-0.7,1.1-3.7,0.9-16.7-1.3c-8.8-1.5-16.1-2.9-16.3-3.1s-0.1-1,0.2-1.8c0.4-1.1,1.5-1.4,3.4-1.1
	C454.2,125.7,460.9,126.7,467.5,127.5z M327,130c-3.4,1.1-6,1.1-3.5,0c1.1-0.5,2.9-0.8,4-0.8C329.1,129.2,329,129.4,327,130z
	 M349,130c0,0.5-0.7,1-1.6,1c-0.8,0-1.2-0.5-0.9-1c0.3-0.6,1-1,1.6-1C348.6,129,349,129.4,349,130z M407.1,132
	c15.5,1.2,17.9,1.6,17.9,3.2c0,0.8-2.3,0.9-7.7,0.4c-18.8-1.6-30.3-1.9-30.3-0.8c0,0.7,1,1.2,2.3,1.2c3,0,24.1,1.8,30,2.6
	c8,1,4.2,2.5-5.1,2c-5.6-0.3-7.6-0.2-5.7,0.3c1.7,0.5,4.4,0.9,6,1c1.7,0.1,3.7,0.5,4.5,1.1c3.1,1.9-0.3,2.2-8.2,0.6
	c-4.6-0.9-13.9-2.3-20.8-3.1c-17.3-2.2-16.9-2-15-6.9c0.9-2.5,1.2-2.6,9.8-2.6C389.6,131,399.7,131.5,407.1,132z M290,135.9
	c0,1.2-0.9,2-2.5,2.3c-3.2,0.7-4.4-1.1-2-2.9C288.1,133.4,290,133.7,290,135.9z M440.4,136.2l4.8,1.1l-0.6,5.5
	c-0.4,3.1-0.9,5.8-1.1,6c-0.2,0.2-1.6-0.5-3.1-1.7c-1.5-1.1-3.5-2.1-4.6-2.1c-2.7,0-1.9-3.3,1-4c4-0.9,2.5-2.5-3.4-3.5
	c-3.2-0.6-5.9-1.6-6.2-2.4C426.7,133.7,430.5,134,440.4,136.2z M490,135c0,0.5-0.4,1-1,1c-0.5,0-1-0.5-1-1c0-0.6,0.5-1,1-1
	C489.6,134,490,134.4,490,135z M511,135.5c7.9,0.8,18.3,3.3,20.6,5c1.6,1.1,1.5,1.4-0.9,3c-2.5,1.6-2.9,1.6-8.9-0.3
	c-3.5-1.2-10.9-3.1-16.5-4.3c-5.7-1.3-10-2.6-9.5-3c1-1,4.4-1.7,6.7-1.3C503.6,134.7,507.4,135.2,511,135.5z M330,136.4
	c0,1.5-7.2,3.2-9,2.1c-2.1-1.3-0.9-2.4,3.3-2.8c2.3-0.2,4.5-0.4,5-0.5C329.7,135.1,330,135.6,330,136.4z M338.8,136.2
	c-0.7,1.9-3.8,2.2-3.8,0.4c0-1,0.9-1.6,2.1-1.6S339,135.5,338.8,136.2z M352.3,136.5c0.1,0.6-1.7,1.1-4,1.3c-5,0.4-5.9-1.5-1-2.1
	C351.4,135.2,352.1,135.3,352.3,136.5z M552,141.9c0,0.9-0.4,2.3-1,3.1c-1.1,1.8-1.5,0.8-2.4-5.5l-0.5-4l1.9,2.4
	C551.1,139.2,552,141,552,141.9z M464.8,140.6c9.5,1.7,14.5,3.1,14.9,4.1c1,2.5-0.4,2.5-9.7,0.4c-11.1-2.5-11.8-2.6-11.6-0.4
	c0.1,1.3-0.6,1.8-2.4,1.8c-2,0-2.4-0.4-2.2-2.1c0.2-1.2-0.4-2.4-1.3-2.7c-1.1-0.5-1.5,0.1-1.5,2.4c0,3.1-2.3,5-4.1,3.2
	c-0.5-0.5-0.6-3-0.3-5.6c0.5-3.7,1-4.6,2.3-4.3C449.8,137.7,456.9,139.1,464.8,140.6z M278.8,142.1c-0.2,2.2-1,3.4-2.5,4
	c-1.9,0.7-2.4,0.4-2.9-1.8c-0.5-1.9-0.2-3,1.1-4C277.7,138.1,279.2,138.7,278.8,142.1z M238.8,147.7c-2.2,2.7-3.8,1.4-3.8-3l0.1-4.2
	l2.4,3C239.3,145.6,239.6,146.7,238.8,147.7z M290,143c0,2.4-2.9,3.4-3.7,1.3c-0.6-1.4-0.7-1.4-1.9,0.2c-1.5,2-3.4,1.2-3.4-1.4
	c0-1.4,0.9-1.8,4.5-1.9C289.2,141.2,290,141.5,290,143z M271,144.8c0,5.1-4.5,7.2-5.6,2.7c-0.7-2.9,1-5.5,3.7-5.5
	C270.5,142,271,142.7,271,144.8z M430,142.4c0,2-1.6,3.6-3.6,3.6c-2.6,0-3-1-1.2-2.8C426.3,142.1,430,141.5,430,142.4z M543.2,145.1
	c2.7,1.3,7.5,6.9,5.9,6.9c-1.8,0-14.1-5.2-14.1-5.9C535,143.8,539.4,143.3,543.2,145.1z M264,148.4c0,3.4-1,4.8-4.3,5.9
	c-1.3,0.5-2.1-0.1-2.9-1.9c-1.1-2.4-0.9-2.9,1.5-5C262.3,144,264,144.3,264,148.4z M495.5,148c24.2,7.1,25,7.5,25,10.1
	c0,1.9-0.5,2.4-2.5,2.4c-2.2,0-3.9-1.9-5.3-5.9c-0.2-0.5-0.9-0.6-1.5-0.2c-0.8,0.5-0.9,1.3-0.2,2.6c0.7,1.3,0.6,2.1-0.5,3
	c-2.1,1.7-1,2.9,2.7,2.8c3.2-0.1,6.8,3,6.8,5.8c0,1.9-0.9,1.8-5-0.7c-1.9-1.2-5.1-2.3-7-2.4c-4.3-0.2-20.7-5.2-21.5-6.5
	c-0.7-1.1,2.2-2.5,6.8-3.5c4.2-0.9,2.9-2.6-3.9-5.1c-3.4-1.2-6-2.9-6.2-3.8C482.7,144.4,483.9,144.6,495.5,148z M478.9,150.5
	c5.3,1.8,8.9,3.5,8.1,3.8c-2.5,0.9-9.9,1.3-9.4,0.5c0.7-1.1-4.7-2.2-5.5-1.1c-0.7,1.1-9.1,1-10.9-0.1c-1.3-0.8-1.6-5.8-0.5-7
	C461.8,145.5,468.2,146.9,478.9,150.5z M365.6,149c3.1,0,3.2,2.8,0,3.6c-1.2,0.3-5.1,0-8.5-0.6c-3.4-0.6-6.6-0.8-7.1-0.5
	c-2.2,1.4-0.7,2.3,4.7,2.9c3.1,0.4,6.3,1.2,7,1.8c1.4,1.1,1.7,14.5,0.4,20.3c-0.5,2.5-1.1,3.1-4,3.3c-4.5,0.4-11.3-3.1-14.7-7.6
	c-2.1-2.6-2.9-5.2-3.5-11.1c-0.5-4.2-1.1-8.6-1.5-9.8c-0.6-2.2-0.4-2.2,9.2-2.6c5.5-0.2,11.2-0.2,12.8,0
	C362,148.9,364.3,149,365.6,149z M393,151.4c8.9,1.2,11.4,3.3,3.2,2.8c-18.6-1.1-22.8-1.5-23.9-2.4c-0.7-0.6-1-1.4-0.7-2
	C372.2,148.9,376.3,149.2,393,151.4z M255,150.9c0,2.2-4.7,6.4-6.3,5.8c-2.6-1-2-3.5,1.1-5.1C252.9,149.8,255,149.6,255,150.9z
	 M335.4,152.5c1.9,2.9,2.2,12.8,0.4,14.3c-1.7,1.3-18.9,3.5-19.9,2.5c-0.4-0.4-1-3.3-1.2-6.3c-0.3-3-0.7-6.6-0.9-8
	c-0.3-2.3,0-2.4,3.5-2.2c2,0.2,3.7-0.1,3.7-0.7c0-1.2,2.4-1.8,8.1-2C333,150,334,150.4,335.4,152.5z M455,152c0,0.9-4.8,0.1-5.5-0.9
	c-0.2-0.4,0.9-0.5,2.6-0.3C453.7,151,455,151.6,455,152z M311.3,164.2c-0.3,4-0.9,7.7-1.3,8.1c-0.4,0.5-0.2,2.1,0.6,3.5
	c1.9,3.7,1.8,5-0.6,5.7c-2.8,0.9-3.7,0.1-4.4-4c-0.5-2.3-1.2-3.5-2.3-3.5c-2.8,0-15.3,6.2-15.3,7.6c0,1.8-0.4,1.8,6.9-1.1
	c6.4-2.7,8.1-2.6,8.1,0.4c0,1.1-2.6,2.9-8,5.6c-10.5,5.1-10.6,5.1-11.5-12.2l-0.8-13.3l3.9-1.6c2.2-0.9,8-2.7,12.9-4
	c8.8-2.2,9-2.2,10.6-0.4C311.4,156.5,311.6,158.4,311.3,164.2z M411.8,155.9c0.3,1,0,1.2-1.3,0.8c-0.9-0.4-2.8-1-4.1-1.3
	c-1.3-0.3-2.2-1-1.9-1.4C405.2,152.8,411.3,154.4,411.8,155.9z M245,156.4c0,1.9-1.9,3.3-5.5,4.1l-3,0.7l3.3-3.1
	C243.3,154.8,245,154.2,245,156.4z M260.5,158c-1.9,2.1-3.5,1.8-3.5-0.6c0-0.9,1-1.4,2.7-1.4C262.2,156,262.3,156.1,260.5,158z
	 M426.4,157.6c13.5,3,31.1,7.5,31.6,8.1c0.3,0.3,0,0.8-0.6,1c-0.6,0.2-2,1-3,1.8c-1.8,1.4-1.7,1.4,1.2,0.9c1.7-0.3,4.1-0.1,5.1,0.5
	c3,1.5,3.8,0,1.1-2.1c-4-3.1-0.3-2.4,18.5,3.3c8.6,2.7,9.7,3.2,8.5,4.6c-1.2,1.5-4.3,1.5-16.3-0.2l-4-0.5l3.5,1.4
	c1.9,0.8,4.3,1.5,5.2,1.5c0.9,0.1,2.8,0.5,4.3,1.1c2.1,0.8,2.4,1.3,1.6,2.8c-0.5,1-2.5,2.7-4.5,3.7c-3.4,1.9-3.5,1.9-5.6,0
	c-1.1-1-3.5-1.9-5.3-1.9c-2.5-0.1-3.2-0.5-3-1.9c0.1-1.6-0.4-1.8-3.3-1.3c-3,0.6-3.6,0.4-5.4-2.6c-1.1-1.8-2-4.1-2-5.1
	c0-1.9-1.1-2.2-2.7-0.6c-0.6,0.6-2.3,0.9-3.9,0.7c-2.2-0.2-3.4-1.3-5.1-4.4c-1.9-3.5-3.3-4.5-8.2-6.3c-3.2-1.1-7.6-2.1-9.8-2.1
	c-2.7,0-4.6-0.6-5.8-2C416.3,155.5,417,155.5,426.4,157.6z M255,159c0,2.5-2.7,3.7-4.3,2.1c-0.9-1-0.8-1.6,0.7-2.7
	C254.1,156.5,255,156.6,255,159z M390.7,158.7c0.6,1.6-3.4,2.6-10.6,2.7c-7.2,0.1-9.8-0.8-8.1-2.9
	C373.6,156.5,390.1,156.8,390.7,158.7z M398.8,161.7c0.3,2.7,0,3.3-1.6,3.3c-2.1,0-3.2-1.8-3.2-5.2c0-1.4,0.6-1.9,2.3-1.6
	C398,158.4,398.6,159.3,398.8,161.7z M410.1,162.3c0.7,4.2,7.4,14.7,9.5,14.7c1.5,0,3.4-5.9,3.4-10.8c0-3,0.2-3.2,3.4-3.2
	c1.8,0,4.7,0.5,6.5,1.1l3.2,1.1l-4,4.3c-2.2,2.4-4.3,5.5-4.7,6.9l-0.6,2.5l-11.6-0.6c-6.5-0.3-12.1-1-12.7-1.4
	c-1.5-1.4-1.9-14.3-0.5-16.8c0.9-1.7,1.9-2.1,4.3-1.9C409.1,158.5,409.5,158.9,410.1,162.3z M533.9,160.7l4.5,1.9l-3.7,2.9
	c-4.3,3.2-10.3,3.9-12,1.4c-0.5-0.9-0.7-3.2-0.3-5.4c0.7-3.6,0.9-3.7,3.9-3.2C528.1,158.6,531.5,159.7,533.9,160.7z M249.3,162.4
	c0.3,0.8-0.4,2.1-1.8,3c-4.4,2.9-5.7,1.8-2.9-2.2C246.3,160.7,248.5,160.3,249.3,162.4z M368.2,164.2c-0.9,0.9-1.2,0.7-1.2-1.2
	c0-1.9,0.3-2.1,1.2-1.2C369.1,162.7,369.1,163.3,368.2,164.2z M415.6,162.6c-0.3,0.9-0.6,2-0.6,2.5c0,0.6-0.4,0.7-1,0.4
	c-1.6-1-1.2-4.5,0.6-4.5C415.7,161,416,161.5,415.6,162.6z M281.4,175.2c0.3,7.3,0.8,15.8,1.1,18.8l0.7,5.5l-9.4,3.9
	c-5.1,2.2-13,5.7-17.6,7.9c-5.8,2.8-8.6,3.7-9.4,2.9c-1.9-1.9,0.1-4.7,10.3-14.1c10-9.3,10-9.4,8.1-11.5c-1-1.1-3.1-4.2-4.6-6.9
	c-1.5-2.6-3.2-4.7-3.8-4.7c-2.6,0-11.1,5.7-26.3,17.4c-15.6,12.1-21.5,17.6-21.5,20c0,2.9,1,3.9,2.5,2.6c1.5-1.3,6.5,0.7,6.5,2.6
	c0,1.2-14.3,11.4-16,11.4c-2.1,0-2.3-5.1-0.3-7.8c3.7-5.1,3.7-5.6,0.3-3.6c-1.7,1-4.3,3.1-5.5,4.7l-2.4,2.7l2.5,2.5
	c2.8,2.8,3,3.8,1,5.4c-1,0.9-2.5,0.6-6.5-1.4c-2.8-1.4-5.1-3.2-5.1-4c0-2.9,32.3-30.6,51.7-44.2c10-7,39.6-23.3,42.3-23.3
	C280.5,162,281.1,168,281.4,175.2z M420,165.1c1.4,2.5,0.3,7.9-1.6,7.9c-1,0-1.4-1.3-1.4-4.3c0-3.8,0.5-5.7,1.6-5.7
	C418.8,163,419.4,163.9,420,165.1z M543.6,164.4c1.9,1.4,1.9,1.5-0.2,4.3c-2.6,3.4-4.6,3.9-6.8,1.8c-1.5-1.5-1.5-1.9,0.5-4.6
	C539.4,162.7,540.7,162.3,543.6,164.4z M241,165.4c0,1.9-2.7,4.6-4.6,4.6c-1.7,0-1.9-4.6-0.1-5.3C238.7,163.7,241,164,241,165.4z
	 M390.5,167c0,2.5-0.1,2.5-8.5,2.5c-8,0-8.5-0.1-8.8-2.2c-0.4-2.7,1.2-3.2,10.3-3C390.3,164.5,390.5,164.6,390.5,167z M553.9,168.6
	c3,1.8,6.4,6.4,8.1,10.9c1,2.8,0.8,2.7-2.5-1.2c-2-2.3-5.5-5.8-7.8-7.7c-3.1-2.6-3.7-3.6-2.4-3.6C550.4,167,552.4,167.7,553.9,168.6
	z M369,169.5c0,0.8-0.4,1.5-1,1.5c-0.5,0-1-0.7-1-1.5c0-0.8,0.5-1.5,1-1.5C368.6,168,369,168.7,369,169.5z M398.8,172.8
	c0.3,3.4,0,4.1-1.2,3.6c-1.1-0.4-1.6-1.9-1.6-4.6C396,166.4,398.4,167.3,398.8,172.8z M441.4,172.9c2.8,6.2,2,7.7-3.9,7.2
	c-2.8-0.1-5.3-0.5-5.7-0.8c-2.6-1.5,2.6-10.3,6.1-10.3C439,169,440.4,170.5,441.4,172.9z M551.5,173c2.1,2.2,3.6,4.2,3.3,4.5
	c-0.5,0.5-10.7-3-11.6-4c-0.6-0.6,2.3-4.5,3.3-4.5C547.1,169,549.3,170.8,551.5,173z M535.3,172.6c1.1,1.4,1.7,2.7,1.5,2.9
	c-0.6,0.6-9.8-2.9-9.8-3.7c0-0.6,2.4-1.3,5.5-1.6C533.1,170.1,534.3,171.2,535.3,172.6z M334.6,172.4c1.1,2.9-1.4,5.5-6.1,6
	c-2.5,0.3-6.6,0.9-9.1,1.2l-4.5,0.5l0.3-3.3c0.3-3,0.7-3.4,4.8-4.5C326.5,170.6,333.9,170.7,334.6,172.4z M388,173.9
	c0,1.5-14,3.5-15.2,2.3c-0.8-0.8-0.2-1.3,1.8-1.7c1.6-0.4,3.4-0.8,3.9-1C380.7,172.7,388,173.1,388,173.9z M349.6,181.2
	c0.3,0.4-0.7,1-2.2,1.4c-2.2,0.6-3.2,0.2-5.1-2c-1.3-1.5-2.3-3.6-2.3-4.7c0-1.8,0.4-1.7,4.6,1.3C347.1,179,349.4,180.8,349.6,181.2z
	 M498.8,178.7c0.4,2.6-2,3.1-6.3,1.1c-4.3-1.9-2.9-4,2.5-3.6C497.8,176.4,498.6,177,498.8,178.7z M451.2,178.7
	c3.3,3.9,3.2,4.7-0.2,2.7c-1.8-1-3.5-2.5-3.8-3.2C446.6,176.4,449.5,176.7,451.2,178.7z M551.7,181.8c-1.9,0.4-8.7-2.6-8.7-3.8
	c0-0.5,2.3,0.1,5.1,1.3C551,180.5,552.5,181.6,551.7,181.8z M511.5,181.1c3.9,1.2,8.2,2.8,9.7,3.6l2.8,1.4l-3.5,6.9
	c-3.8,7.6-6.7,9.2-7.9,4.5c-0.7-2.6-2-3.2-3.1-1.5c-1.1,1.7-2.3,1.1-2.9-1.5c-0.5-1.9-1.3-2.5-3.2-2.5c-2.4,0-2.6-0.2-1.9-3.3
	c0.4-1.7,0.7-4.9,0.7-6.9c0-2.3,0.4-3.5,1.2-3.3C504,178.7,507.7,179.8,511.5,181.1z M258.4,182.7c4.7,7.3,4.6,7.5-4.6,16.9
	c-4.6,4.7-9.1,9-10.1,9.5c-1.4,0.8-3.4,0-9.2-3.6c-4.1-2.6-7.3-5.1-7-5.6c1.6-2.6,25.8-20.9,27.7-20.9
	C255.6,179,257.1,180.7,258.4,182.7z M337,182c0.9,0.6,1.1,1.2,0.5,1.8c-0.9,0.7-27.6,7.2-29.7,7.2c-0.5,0-0.8-1.5-0.8-3.4v-3.4
	l7.3-1.2c3.9-0.7,7.7-1.4,8.2-1.5C324.8,180.7,335.6,181.1,337,182z M495.3,183.7c2.3,1.2,2.7,2,2.7,5.7c0,3.9-0.2,4.4-2,3.9
	c-1.1-0.3-2-1.1-2-1.8c0-0.7-1.3-2.5-3-3.8c-3.7-3.2-4.2-7.2-0.7-6.1C491.5,181.9,493.7,182.9,495.3,183.7z M304.6,191.5
	c-0.7,2-6.5,2.9-9.2,1.4c-1.3-0.7-2.4-1.5-2.4-1.8c0-0.4,2.4-2.1,5.3-3.9l5.2-3.2l0.8,3.1C304.8,188.8,304.9,190.8,304.6,191.5z
	 M485,187.5c0,1.5-0.6,2.5-1.5,2.5c-1.2,0-1.3-0.4-0.3-2.5c0.6-1.4,1.3-2.5,1.5-2.5C484.8,185,485,186.1,485,187.5z M534,189.6
	c6.4,2.6,31,14.1,31.8,14.8c0.5,0.6-3.5,8.3-4.7,9.1c-1.2,0.7-3.4-3.3-5.1-9.3c-0.8-2.3-1.9-4.2-2.7-4.2c-0.8,0-3.9,2.3-6.8,5.1
	c-3.7,3.5-5.6,4.7-5.9,3.8c-0.2-0.8-0.7-2.2-1-3.2c-0.6-1.9-3.8-2.2-6.5-0.6c-1.4,0.9-2.8,0.8-6.5-0.6c-5.5-2.1-6.2-3.3-4.7-7.7
	c0.9-2.4,5.1-9.7,5.7-9.8C527.6,187,530.5,188.2,534,189.6z M492,191.1c0,0.5-0.4,0.9-1,0.9c-0.5,0-1-0.7-1-1.6c0-0.8,0.5-1.2,1-0.9
	C491.6,189.8,492,190.5,492,191.1z M292,194.5c1.3,1.5,1.4,1.4-3.5,3c-1.8,0.5-2-1.6-0.3-3.3C289.8,192.6,290.5,192.7,292,194.5z
	 M230,204.8c1.9,1.5,2.1,2.2,1.1,3.9c-0.6,1.2-2.5,3.2-4.3,4.4l-3.1,2.3l0.6-4.9c0.4-2.6,0.7-5.4,0.7-6.1
	C225,202.5,227.4,202.7,230,204.8z M222.4,206.2c-1.1,3.9-3.3,8.8-3.8,8.8c-0.3,0-1.7-0.5-3.2-1l-2.7-1.1l4.3-4.4
	C221.9,203.5,223.5,202.9,222.4,206.2z M553.8,207.3c0.2,1.1-0.3,1.7-1.7,1.7c-2.3,0-3.5-1.5-2.6-3.1
	C550.5,204.4,553.4,205.3,553.8,207.3z M572,207.5c1.7,0.9,3,2.4,3,3.3c0,3.1-3.2,11.3-4.6,11.9c-1.6,0.6-7.4-3.4-7.4-5.1
	c0-1.5,3.5-9.8,4.6-10.9C568.6,205.8,568.7,205.8,572,207.5z M237.8,210.6c2.2,1.5,2.3,1.7,0.6,3.5c-1.9,2.1-17.6,12.9-18.7,12.9
	c-0.4,0-0.7-0.6-0.7-1.4c0-1.2,14.8-16.6,16-16.6C235.3,209,236.6,209.7,237.8,210.6z M551.9,211.4c3.2,1.7,5.7,4.4,4.8,5.2
	c-0.7,0.7-9.5-2.5-10.3-3.7c-0.7-1.1,0.4-2.9,1.7-2.9C548.7,210,550.3,210.6,551.9,211.4z M584.5,214.1c2.2,1.1,8.4,5,13.7,8.6
	l9.8,6.6l-2.8,3.6c-1.5,2-3.6,4.9-4.5,6.4l-1.8,2.8l-4-2.3c-2.2-1.2-4.7-3-5.6-4c-1.5-1.7-1.5-2,0.4-4.6c1.1-1.5,2.3-3.9,2.7-5.5
	c0.5-2.2,0.3-2.7-1.3-2.7c-1.1,0-2.6-0.8-3.3-1.8c-0.7-1-3-3.1-5-4.6c-3.5-2.6-4.8-4.6-3-4.6C580.2,212,582.3,212.9,584.5,214.1z
	 M244.5,215c0.7,1.2-1.2,4-2.6,4c-1,0-1.2-3.4-0.2-4.3C242.6,213.7,243.8,213.8,244.5,215z M238,219.4c0,0.8-0.4,1.7-0.9,2.1
	c-1.2,0.7-2.4-1.2-1.6-2.5C236.4,217.5,238,217.8,238,219.4z M583.8,221c4.6,3.3,5.2,5.6,2.3,9.1l-1.8,2.3l-5.2-3.4
	c-4.7-2.9-5.2-3.6-4.6-5.9C576,217.2,578,216.8,583.8,221z M230,225c0,0.9-3.2,3-4.6,3c-0.4,0,0.1-0.9,1.1-2
	C228.4,223.9,230,223.4,230,225z M217.5,228.6c0.9,1.4,1.5,2.7,1.3,2.8c-0.8,0.7-11.6,7.4-13.4,8.4c-1.6,0.9-2.6,0.8-4.2-0.4
	c-2.2-1.5-2-1.6,5.5-7.4c4.3-3.3,8.1-6,8.4-6C215.5,226,216.5,227.2,217.5,228.6z M187,232.5c1.6,2-0.3,5-6.3,9.9
	c-4.4,3.6-8,4.6-9.3,2.5c-0.7-1.2,11.3-13.9,13.2-13.9C185.2,231,186.3,231.7,187,232.5z M616.4,234.9c2.1,1.6,4.2,3.1,4.9,3.4
	c0.9,0.3,0.6,1.8-1,5.3c-1.2,2.7-2.5,5.9-2.8,7.1c-0.8,3-1.6,2.9-5-0.7c-2.7-2.8-2.8-3-1.1-5.5c1.2-1.9,2.4-2.5,3.7-2.2
	c3.3,0.9,1.8-2.5-2.3-5.2c-2.2-1.4-3.4-2.9-3.1-3.7C610.5,231.3,612.4,231.7,616.4,234.9z M609,237.9c1.3,2.5-0.7,7.3-2.8,6.9
	c-2.9-0.6-3.7-3.4-1.9-6.2C606.4,235.5,607.6,235.3,609,237.9z M191.8,238.2c0.9,0.9,0.8,1.6-0.5,3c-0.9,1-2.2,1.8-2.9,1.8
	c-2.2,0-2.7-2.1-0.8-4.1C189.6,236.7,190.2,236.6,191.8,238.2z M199,242c1.7,1,1.9,0.9-4.2,4.3c-6.4,3.7-6.9,3.4-2.3-1.3
	C196.8,240.6,196.8,240.6,199,242z M633.7,247.8c14.4,11.5,19.1,15.7,18.9,16.6c-0.4,1.5-5.3,2.5-8.3,1.7c-2.5-0.7-2.8-1.2-2.8-5.3
	c0-6.3-1.2-7-2.6-1.4c-1.3,5.2-2.9,6.1-2.9,1.6c0-3-1.4-4.1-2.3-1.8c-0.3,0.7-0.6-1-0.6-3.9c-0.1-6.1-1.6-7.8-2.5-2.8
	c-0.9,4.6-2.4,5.3-3.7,1.6c-0.6-1.7-1.4-3.1-1.8-3.1c-0.4,0-1.5-0.6-2.5-1.3c-1.7-1.3-1.7-1.5-0.2-4.5c0.9-1.8,2.2-3.2,2.9-3.2
	C625.9,242,629.7,244.6,633.7,247.8z M186.5,244.1c0.4,0.6-0.3,2.1-1.5,3.4c-1.2,1.3-1.9,2.8-1.6,3.4c0.5,0.7-0.3,0.7-2.4,0
	c-3.7-1.3-3.8-2.3-0.2-5.4C183.8,242.8,185.5,242.4,186.5,244.1z M172.4,248.9c1.7,1.9,1.7,2-0.6,3.4c-3.6,2.4-7.8,4.1-8.4,3.4
	c-0.7-0.6,1.2-4.4,3.4-7C168.8,246.5,170.3,246.5,172.4,248.9z M178.4,254.9c1.7,1.9,1.6,2-2.8,4.6c-2.5,1.5-5.3,2.5-6.3,2.3
	c-1.5-0.3-1.1-1.1,2.3-4.6c2.3-2.3,4.4-4.2,4.6-4.2C176.5,253,177.5,253.9,178.4,254.9z M521,255.2c0,0.6-0.7,1.9-1.6,2.9
	c-2.3,2.5-1.1,5.3,2.1,4.7c2-0.4,2.6,0.1,4,3.4c0.8,2.1,2.4,7.3,3.5,11.6c7,26.5,12.3,36.9,28.5,55.8c4.1,4.9,8.9,11.6,10.5,14.9
	c8.8,18.1,5.6,59.3-7,88c-6.4,14.9-21.8,32-36.6,40.7C486.5,499.6,417.8,507.3,339,498c-25.2-3-39.3-6-58.1-12.6
	c-24.1-8.4-37.7-16.8-47.3-29.3c-9.8-12.7-13.3-24.6-14.3-48.9c-0.5-13.7-0.4-15.2,1-15.2c1,0,1.7-0.8,1.7-2c0-1.4-0.5-1.8-1.6-1.3
	c-1.2,0.4-1.5,0.1-1.3-1.3c0.3-1.3,4.5-4,13.5-8.5c12.8-6.4,31.3-18.2,48.3-30.8c4.6-3.4,10.4-7.4,12.8-8.8c4.1-2.4,4.7-2.5,8.4-1.3
	l4,1.3l4.8-5.4c2.7-3,7.4-7.2,10.5-9.3l5.7-3.9l4,3.9c3.7,3.6,4,3.7,5.6,2.1c1.8-1.7,1.3-3.5-2.2-8.3c-1.5-2-1.3-2.4,5.2-7.9
	c9.7-8.2,17.2-15.5,21.6-20.9c2.1-2.5,5.1-5.3,6.7-6.1c2.6-1.3,2.8-1.3,3.3,0.7c0.4,1.5,1.1,1.9,2.6,1.5c2.5-0.6,2.6,0.2,0.6,4.9
	c-2.7,6.5-11.8,18.5-19.8,26c-9.9,9.3-14.4,12.4-28.2,19.5c-8.1,4.2-11,6.2-11,7.5c0,1.8,1.1,1.9,13.7,2.2
	c20.8,0.4,38.1-3.6,59.5-13.8c28.5-13.5,53.5-35.8,69.5-61.8c3-4.9,4.1-5.9,5.8-5.5c2.4,0.6,2.6,1.9,0.5,2.7
	c-2.3,0.8-1.9,5.7,0.5,6.3c2.6,0.7,2.5,2-0.5,12c-2.9,9.4-13.1,25.7-20.9,33.3c-8.2,8-5.6,9.2,6.2,2.8c28-15.2,42.1-29.3,55.1-55.1
	c5.4-10.9,5.7-11.2,8.7-10.9c1.9,0.2,3.6-0.3,4.4-1.2C519.3,252.9,521,253.3,521,255.2z M612.5,256.6c3.1,2,3.2,3.8,0.3,2.8
	c-3.1-0.9-4.9-2.4-4.2-3.5C609.3,254.7,609.7,254.8,612.5,256.6z M165,260.4c0,3.2-1.3,4.6-4.1,4.6c-1.6,0-2.9-0.4-2.9-0.8
	c0-1.3,2.3-3.9,4-4.5C164.5,258.8,165,258.9,165,260.4z M376.1,279c0.6,0,0.8,0.4,0.5,0.9c-0.8,1.2-4.6,0.2-4.6-1.1
	c0-0.6,0.7-0.7,1.6-0.4S375.6,279,376.1,279z M617.4,387.4c11.5,4.8,14.2,26.7,5.4,43.9c-2.4,4.9-10.7,12.9-15.5,15.2
	c-7.9,3.8-16.7,2.9-21.4-2.1c-2-2.2-2.4-3.5-2.2-8.7c0.2-8.4,3.8-24.1,6.9-30.5c3.5-7.3,9.6-11.2,17.1-11.2c4.4,0,5.8,0.5,8.4,2.8
	c2.7,2.4,3.2,3.6,3.4,8.1c0.2,2.9,0.6,5.5,1,5.9c1.1,1.1,2.5-2.2,2.5-5.9c0-4-4.9-11.1-9.2-13.5c-2.8-1.6-9.7-1.8-13.4-0.4
	c-2.5,1-2.6,0.9-1.3-0.6C602.5,386.3,611.3,384.8,617.4,387.4z M192,391.5c4.3,2.2,7.9,5.9,6.8,7c-0.2,0.3-2.4-0.9-4.8-2.5
	c-5.1-3.4-11.4-3.9-16.5-1.4c-1.6,0.8-2.1,1.2-1,0.9c9.5-2.8,15-1.1,22,6.7c5.4,6,6.6,10.1,6.6,21.6c-0.1,20.4-4.6,26.2-19.1,24.9
	c-10.9-1-19.5-7.9-22.7-18.4c-2.7-8.6-2.5-23.5,0.4-28.8C169.8,390.1,181.3,386.1,192,391.5z M406,512.8l8.5,0.7l-8.2,6.2
	c-4.5,3.5-9.1,6.3-10.2,6.3s-2.9-1.2-4-2.6c-1.1-1.4-2.5-2.3-3.1-1.9s-1.9,0-2.8-0.9c-0.9-0.9-3.2-2.8-5-4.2c-1.7-1.4-3-3-2.6-3.5
	C379.2,511.9,393.1,511.9,406,512.8z M365.3,520c2.1,0,2.3,1.6,0.2,2.4c-1.8,0.6-6.5-1.3-6.5-2.7c0-0.5,1-0.7,2.3-0.3
	C362.5,519.7,364.3,520,365.3,520z M434,519.9c0,0.4-2,1.9-4.5,3.2c-4.2,2.2-4.6,2.3-6.1,0.7c-1.6-1.6-1.5-1.8,1.7-3.2
	C428.9,519,434,518.5,434,519.9z M443,522.3c-2.5,1.1-7.5,3.6-11.2,5.4c-3.8,1.8-6.8,3.1-6.8,2.9c0-1,10.4-6.9,15.1-8.6
	C447.2,519.5,448.6,519.6,443,522.3z M357.5,525c0.3,0.5-0.1,1-0.9,1c-0.9,0-1.6-0.5-1.6-1c0-0.6,0.4-1,0.9-1
	C356.5,524,357.2,524.4,357.5,525z M378.6,527.1c6.3,4,11.4,8.8,11.4,10.9c0,0.9-1.3,2.9-2.9,4.4l-2.9,2.8l-2.1-2.1
	c-1.2-1.2-2.7-2.1-3.4-2.1c-0.7,0-4.4-2.5-8.2-5.5c-3.8-3-7.5-5.5-8.2-5.5c-0.7,0-1.3-0.5-1.3-1c0-1.7,2.6-1.1,4.5,1s6,2.6,8.5,1
	c0.8-0.5,1.1-1,0.5-1c-2,0-7.6-4.1-7-5C368.7,523.1,373.7,524,378.6,527.1z M421.8,526.2c0.9,0.9,0.4,2-2.5,5
	c-2.1,2.2-3.1,3.8-2.3,3.8c1.2,0,1.1,0.3-0.2,1.6c-1.5,1.5-1.9,1.4-5.2-1.1c-2-1.5-3.6-3.1-3.6-3.5c0-1.8,8.1-6.9,11.1-7
	C419.9,525,421.1,525.5,421.8,526.2z M408.8,536.6c2.2,1.5,3.1,5.4,1.2,5.4c-1.7,0-9-4-9-4.9C401,534.6,405.5,534.3,408.8,536.6z
	 M359.1,539.6c1.1,1.3,1.1,2-0.1,4.2c-0.8,1.4-2,2.7-2.6,2.9c-1.4,0.5-3.2-4.4-2.6-7C354.2,537.6,357.3,537.5,359.1,539.6z
	 M434.4,539.5c-0.4,0.8-1,1.5-1.5,1.5s-0.9,0.7-0.9,1.6c0,1.5,0.2,1.5,2.5,0c3-2,3.1-1.8,3.8,7.2c0.3,3.9,0.1,6.2-0.5,6
	c-0.5-0.2-2.7-3.7-4.9-7.8c-3.7-6.9-3.9-7.5-2.3-8.7C433,537.5,435.1,537.7,434.4,539.5z M336,541.5c0,0.8-0.7,1.5-1.5,1.5
	c-1.6,0-2-1.2-0.8-2.3C334.8,539.5,336,539.9,336,541.5z M452,541.5c0,1.2-2.8,3.5-4.4,3.5c-1.1,0-0.6-2.6,0.6-3.8
	C449.9,539.5,452,539.7,452,541.5z M404.1,544c2.6,1.4,2.4,4.2-0.5,7l-2.5,2.3l-0.6-2.9c-0.4-1.6-0.9-3.5-1.1-4.2
	C398.5,543.2,400.7,542.2,404.1,544z M388,546.9c1.7,3.3,1.2,4.6-1,2.6c-2.1-1.9-2.7-4.5-1-4.5C386.5,545,387.4,545.9,388,546.9z
	 M332.4,546.9c0.7,1-3.2,4.7-4,3.8c-0.7-0.7,1.4-4.7,2.6-4.7C331.5,546,332.1,546.4,332.4,546.9z M457.8,550
	c1.2,1.8,2.2,3.7,2.2,4.2s-2.8,0.8-6.2,0.6c-5.9-0.3-6.3-0.5-6.6-2.8c-0.2-1.9,0.5-2.9,3-4.2C454.3,545.7,455,545.9,457.8,550z
	 M338,551.7c0,2.4-0.7,2.7-3.4,1.7c-2.1-0.8-2-3.4,0.1-5C336.8,547,338,548.2,338,551.7z M353,551.2c0,1.3-5,10.8-5.7,10.8
	c-0.9,0,0.6-10.9,1.9-13.3c1-2,1.1-2,2.4-0.2C352.4,549.5,353,550.8,353,551.2z M371.8,549.2c1.9,1.9,1.4,2.8-1.3,2.8
	c-2.4,0-3.4-1.8-1.8-3.3C369.6,547.7,370.4,547.8,371.8,549.2z M423.3,553.2c1.7,2.6,0,6.8-2.7,6.8c-2.6,0-3.9-2-2.9-4.8
	C419.2,550.9,421.4,550.1,423.3,553.2z M413.1,554.3c-1,0.9-1.1,0.8-0.5-0.6c0.3-1,0.9-1.5,1.2-1.2
	C414.1,552.8,413.8,553.6,413.1,554.3z M329,555c0,0.5,0.6,0.7,1.4,0.4c2.1-0.8,5.6,1.4,5.6,3.5c0,3-2.3,4.3-5.5,3.1
	c-1.5-0.6-3-0.8-3.3-0.6c-0.3,0.3-1.3,3.8-2.2,7.8c-1.6,6.6-2,7.3-4.1,7c-3.2-0.4-3.4-0.7-2-5.4c2.4-7.9,6.9-16.8,8.5-16.8
	C328.3,554,329,554.4,329,555z M374.2,555c2.8,0.8,4.4,2.2,7,6.2c6.8,10.5,6.7,9.7,1.4,14.1c-4.3,3.6-4.6,4.2-4.5,8.6l0.1,4.6
	l1.2-3.5c0.9-2.3,1.9-3.5,3.2-3.5c2,0,2.1,0.5,0.9,8.7c-0.7,5.3-2,6.1-3.5,2.3c-1.2-3.2-5.5-3.6-4.5-0.4c0.6,1.8,0.3,2-2.2,1.7
	c-2.4-0.2-2.8-0.8-3.1-3.6c-0.2-1.8,0.3-5.4,1-8c1-3.3,1.1-6.1,0.5-9.5c-0.7-3.7-0.6-5.2,0.6-7.1c1.7-2.6,1.3-3.6-1.5-3.6
	c-2.4,0-5.8-3.5-5.8-6C365,553.7,368.1,553.4,374.2,555z M451.4,560.2c1,4,0.7,6.8-0.9,6.8c-0.9,0-1.5-0.9-1.5-2.3
	c0-1.2-0.3-3.2-0.6-4.5c-0.5-1.6-0.2-2.2,0.9-2.2C450.1,558,451,559,451.4,560.2z M457.9,559.7c0.9,1.5,1.2,1.6,2,0.4
	c1.1-1.6,3.1-0.6,3.1,1.6c0,1.1-0.6,1.4-2.4,0.9c-3.5-0.9-4,0.7-1.8,5.8c1.7,3.7,2.5,4.4,5.6,5c2,0.4,4,1.5,4.6,2.6
	c0.9,1.6,0.5,2.2-2.2,3.7l-3.3,1.8l4.1,0.3c3.9,0.3,4.2,0.5,5.2,4.3c0.5,2.1,0.7,3.9,0.3,3.9c-2.5-0.1-19.6-4.1-20.3-4.8
	c-0.5-0.5-1.1-2.4-1.4-4.4c-0.6-3.2-0.3-3.6,2.5-4.8c1.7-0.7,3.1-1.5,3.1-1.9c0-0.3-0.9-3.8-1.9-7.8s-1.6-7.4-1.3-7.7
	C454.9,557.5,456.9,558,457.9,559.7z M413,563.8c0,2.4-2.8,6.2-4.6,6.2c-2,0-1.8-1.7,0.7-5.6C411.2,560.9,413,560.7,413,563.8z
	 M363.6,568.8c-1.2,1.2-1.8-0.8-1-3.5l0.8-2.8l0.4,2.8C364,566.9,363.9,568.4,363.6,568.8z M423,570.2c0,4.8-2.9,8.1-6.1,6.9
	c-4.7-1.7-3.9-9.2,1-9.9c1.4-0.2,2.1-0.9,1.7-1.7c-0.8-2.1,0.7-2.8,2.1-0.9C422.4,565.6,423,568.1,423,570.2z M333.5,568.6
	c-1.1,7.6-1.8,8.4-5.9,6.8c-1.9-0.7-2-2.5-0.5-7.7c0.9-3.2,1.4-3.7,4.1-3.7h3L333.5,568.6z M369,566.5c0,1.4-0.4,2.5-1,2.5
	c-0.5,0-1-1.1-1-2.5s0.5-2.5,1-2.5C368.6,564,369,565.1,369,566.5z M429.2,566.5c0.4,1.7,0.1,2.5-0.8,2.5c-1.4,0-1.9-3.1-0.7-4.3
	C428.6,563.7,428.7,563.8,429.2,566.5z M465.8,568.2c0.5,2.5-2.5,2.3-3.8-0.3c-1-1.8-0.9-2,1.2-1.7
	C464.4,566.4,465.6,567.3,465.8,568.2z M454,571.6c0,0.8-0.9,1.4-2,1.4c-2.2,0-2.8-2.6-0.7-3.3C452.9,569.1,454,569.8,454,571.6z
	 M363.4,572.2c-0.8,2.9-1,3.1-2.3,2.3c-0.8-0.4-0.8-1.2-0.1-2.6C362.5,569.2,364.3,569.5,363.4,572.2z M429.4,574.2
	c-1.1,3.6-5.5,8.8-7.8,9.4c-1.2,0.3-4.9,0.4-8.1,0.2l-6-0.3l-0.3-5.3c-0.4-6,1.3-7,3.9-2.3c3.2,5.6,11.3,4.8,14.1-1.5
	C426.7,571.2,430.4,571,429.4,574.2z M368.3,576.7c-0.3,0.9-0.9,1.1-1.5,0.5c-0.5-0.5-0.6-1.7-0.2-2.6c0.5-1.3,0.9-1.4,1.4-0.5
	C368.5,574.8,368.6,576,368.3,576.7z M391,576c0,1.7-0.7,2-4,2c-4.5,0-5.2-1.1-1.7-2.8C388.9,573.5,391,573.8,391,576z M332.3,580.7
	c1.2,0.7,0.8,4.1-0.5,5c-1.7,1-15.9,7.3-18,8c-1.4,0.4-1.8-0.1-1.8-2.1c0-1.4,0.8-3.4,1.8-4.4c0.9-0.9,1.6-2.7,1.4-4
	c-0.5-3.1,2.9-4.3,10.3-3.6C328.8,580,331.8,580.4,332.3,580.7z M362.3,581c1.7,0,1.9,0.5,1.2,4.7c-0.8,5.9-1.6,6.8-4.5,5.3
	c-1.8-1-2.1-1.8-1.6-4.2c0.3-1.7,0.6-4.2,0.6-5.6c0-2,0.3-2.3,1.2-1.4C359.9,580.5,361.3,581,362.3,581z M435,580.6
	c0,0.8-0.4,1.2-1,0.9c-0.5-0.3-1-1-1-1.6c0-0.5,0.5-0.9,1-0.9C434.6,579,435,579.7,435,580.6z M355,582.8c0,1.6-0.6,3.7-1.4,4.8
	c-1.4,1.8-1.5,1.8-2.1,0.1c-0.8-1.9,1.2-7.7,2.6-7.7C354.6,580,355,581.3,355,582.8z M391.4,584.2c1.1,4.1,0.6,8.5-1,9.9
	c-2.6,2.1-4.7-1.5-3.8-6.6c0.3-2.2,0.8-4.3,1.1-4.8C388.6,581.2,390.8,582.1,391.4,584.2z M430.5,583c0.3,0.5,0.1,1-0.4,1
	c-0.6,0-1.1-0.5-1.1-1c0-0.6,0.2-1,0.4-1C429.7,582,430.2,582.4,430.5,583z M438,588.5c1.4,4.3,0.9,5.8-2.5,8.1
	c-2.5,1.6-2.7,1.6-4.6-0.5c-1.5-1.6-3-2.1-5.2-1.9c-3.5,0.3-3.5,0.3-2.6,9.8c0.6,6.7-1.3,6.1-3.4-1.1c-1.5-5-1.6-6.3-0.6-7
	c1-0.6,0.9-1-0.4-1.5c-3.1-1.2-3.7,0.8-2.2,7.1c2.2,9.8,3.1,11.5,5.9,11.5c1.8,0,3,0.9,4.1,3.1c0.9,1.7,1.4,3.3,1.2,3.5
	c-0.3,0.3-3.6,0.8-7.5,1.1c-8.2,0.7-7.5,1.5-11.7-13c-2.8-9.7-2.8-9.7-1-13.8c1-2.2,2.8-4.7,3.9-5.5c2.4-1.6,9.2-1.9,10.1-0.3
	c0.4,0.6,1.4,0.7,2.4,0.3c1.5-0.6,10.7-3.1,12.3-3.3C436.5,585,437.4,586.6,438,588.5z M337,594.5c0.7,0.8,1,2.2,0.6,3
	c-0.8,2.2-3.6,3-4.6,1.4c-1-1.5-2.5-0.5-2.5,1.8c0,1.2-13.4,9.2-15.6,9.3c-0.3,0-1.1-1-1.7-2.3c-1-2.1-1-2.1-0.9,0.7
	c0.2,3.5-1.8,4.6-2.6,1.4c-0.9-3.2,1.5-6.3,7.6-10.2C327.1,593.4,334.5,591.5,337,594.5z M362.7,595.7c7.6,1.9,13.5,2.7,20.2,2.7
	l9.3,0.1l-0.6,4.3c-0.3,2.4-0.8,4.8-1.2,5.3c-0.8,1.3-5,1.1-8.7-0.5c-1.8-0.7-4.7-1.1-6.5-0.8c-3.8,0.5-6.2-1.1-5.5-3.8
	c0.9-3.3-1.3-2.3-6.6,3l-5,4.9l-0.6-3c-0.5-2.1-2.2-4.1-5.6-6.6c-4.5-3.2-6-5.9-4.2-7.6C348.8,592.5,351.4,592.9,362.7,595.7z
	 M460.8,595.5c0.4,3.1-1.3,4.9-3.9,4.2c-7.4-1.9-7.9-7-0.7-6.5C459.6,593.4,460.6,593.9,460.8,595.5z M469.5,595.7
	c3.6,1.7,5.3,4.9,4.1,7.8c-0.9,2.4-2.6,1.7-3.7-1.5c-1.2-3.3-2.6-3.9-3.5-1.5c-0.7,1.8-3.4,2-3.5,0.2c-0.3-3.4,0.7-6.7,2-6.7
	C465.5,594,467.5,594.8,469.5,595.7z M429.6,603.9c0.6,4.3,2,9.7,3.2,12l2.2,4.1h-2.4c-2.9,0-4.4-3.1-6.2-13.5
	c-1.8-10.2-1.8-10.5,0.4-10.5C428.3,596,428.8,597.4,429.6,603.9z M402.6,604.8c-1.2,1.2-1.8-0.8-1-3.5l0.8-2.8l0.4,2.8
	C403,602.9,402.9,604.4,402.6,604.8z M444.8,609.7c0.2,2.4-0.1,4.3-0.5,4.3c-2.1,0-5.3-3.3-5.3-5.4c0-2.9,0.9-3.8,3.5-3.4
	C444.1,605.4,444.6,606.4,444.8,609.7z M455.5,606.4c1.6,1.2,1.7,1.6,0.6,3c-0.7,0.9-1.9,1.6-2.7,1.6c-1.3,0-3.4-3-3.4-4.9
	C450,604.6,453.3,604.7,455.5,606.4z M337.2,610.2c-1.2,1.2-2.7,1.8-3.6,1.5c-2.4-1-1.9-2.2,1.7-3.9
	C339.1,606,340.2,607.3,337.2,610.2z M348.3,609.5c-0.7,2.1-4,3.8-4.8,2.6c-0.3-0.5,0-2.1,0.6-3.5c1-2,1.5-2.3,3-1.5
	C348.2,607.6,348.7,608.7,348.3,609.5z M368.2,612.5c-1.8,3.9-1.4,8.3,0.8,10.5c4.5,4.5,10.6,1,9.8-5.7c-0.3-2.1-0.8-4.7-1.3-5.7
	c-0.8-1.8-0.5-1.9,4.3-1.2c2.9,0.4,5.9,0.9,6.7,1.2c1.8,0.7,1.9,4.3,0.3,13l-1.3,6.6l-11-0.7c-6-0.3-14.6-1.3-19-2.1
	c-13.3-2.4-14-3-7.5-5.9c3.8-1.7,4.1-1.7,5.9-0.1c1.3,1.2,3.2,1.6,5.7,1.4c3.9-0.3,6.2-2.8,2.6-2.8c-6.2,0-6.6-2.6-1.6-9.4
	c3.3-4.4,3.7-4.7,5.2-3.3C369.1,609.6,369.1,610.4,368.2,612.5z M407.6,614.7c0.4,1.5,0.8,5.5,0.8,8.8c0.1,5.6-0.1,6-2.7,7.3
	c-5,2.4-6,1.1-5.5-7.1c0.3-4,1-8.2,1.7-9.5C403.6,611.1,406.8,611.3,407.6,614.7z M469.5,613.4c4.8,1.7,5.3,2.8,1.9,4.6
	c-2.6,1.5-9.7,2-10.9,0.9c-0.8-0.8,2.7-6.9,4-6.9C465.1,612,467.3,612.7,469.5,613.4z M328.6,616.1c2.3,2.6,1,3.6-6.3,4.5
	c-7.7,0.9-8.4,0.1-2.9-3.4C325.3,613.4,326.1,613.3,328.6,616.1z M375.8,617.3c0.4,2-2.5,3.4-4,1.9s-0.1-4.4,1.9-4
	C374.7,615.4,375.6,616.3,375.8,617.3z M443.1,624.7c0.7,0.7-2.1,1.1-9.8,1.1c-12.1,0.1-18.3-0.5-18.3-1.9
	C415,622.6,441.7,623.3,443.1,624.7z M452.8,628.6c0.2,2.3-0.2,3.3-1.4,3.8c-1.4,0.5-17.1,2.4-21.9,2.6c-2.9,0.1-3.4,1.6-1.9,5.9
	c0.8,2.5,1.2,5.6,0.9,7.2c-0.6,2.8-0.9,2.9-6,2.9c-5.4,0-5.4,0-6.5-3.8c-0.5-2-1.3-7.5-1.7-12.1l-0.6-8.4l4.4,0.6
	c2.4,0.4,9.6,1.2,15.8,1.8l11.5,1.1l1.9-2.7C449.8,624.1,452.4,624.6,452.8,628.6z M344.7,629.5c3.1,0.8,7.8,1.5,10.4,1.5
	c8.7,0,8.9,0.3,6.2,12.5c-1.6,7.4-1.6,7.5-4.8,7.5c-6.4,0-9.5-1.1-9.5-3.4c0-2.1-0.1-2.1-1.8,0.2c-1.7,2.2-2.1,2.3-6.1,1.2
	c-7.3-1.9-9.6-6-7-12.7c0.8-2.3,5.6-8.3,6.5-8.3C338.8,628,341.5,628.7,344.7,629.5z M459.4,629.5c0.3,0.8,0.1,1.5-0.4,1.5
	c-0.6,0-1-0.7-1-1.5s0.2-1.5,0.4-1.5C458.6,628,459,628.7,459.4,629.5z M331,630c0,1.2-2.8,2.5-3.6,1.7c-0.9-0.9,0.6-2.7,2.2-2.7
	C330.4,629,331,629.5,331,630z M373,632.9c0,0.5-0.5,2.2-1,3.7c-1.8,4.7-2.9,14.8-1.7,16.2c0.7,0.9,3.2,1.2,8.1,1
	c5.8-0.2,7.1,0,7.1,1.2c0,1.1-1.5,1.7-5.5,2.1c-5.1,0.5-5.8,0.3-9.8-2.8c-2.4-1.8-5-3.3-5.8-3.3c-1.9,0-1.8-3.6,0.3-12.1
	c1.6-6.8,1.7-6.9,5-6.9C371.5,632,373,632.4,373,632.9z M386.5,634.3c0,0.1-0.2,3.8-0.5,8.2c-0.5,7.9-0.5,8-3.4,8.3
	c-1.6,0.2-4.5,0.1-6.4-0.3l-3.5-0.6l0.6-6c0.3-3.3,1.3-7.1,2.2-8.6c1.5-2.3,2.1-2.5,6.3-1.9C384.3,633.7,386.4,634.1,386.5,634.3z
	 M410.9,635.7c0.5,1,1.2,4.3,1.6,7.4c1.1,8.8-2.4,13.9-9.3,13.9c-1.8,0-3.2-0.6-3.6-1.6c-1.1-3-0.6-16,0.7-17.8
	c1.1-1.4,4.8-2.9,8.9-3.5C409.6,634,410.3,634.8,410.9,635.7z M451.4,638.3c0.8,1.4,0.8,2-0.4,2.7c-2.8,1.8-6.1,1.2-6.8-1.3
	c-0.5-1.5-0.9-0.4-1.3,3.8l-0.5,6l-1.4-3.3c-0.9-2-2.2-3.2-3.3-3.2c-1.9,0-1.9,1.6-0.1,6.4c1,2.6-3.3,2-4.7-0.6
	c-2.1-3.8-2.8-8.6-1.5-10.2c0.7-1,3.4-1.6,8.1-1.9C449.5,636.2,450.2,636.3,451.4,638.3z M459,638.2c3.7,2.7,3.9,5.5,0.4,6.4
	c-3.1,0.8-4.4-0.7-4.4-5.4C455,635.4,455.2,635.3,459,638.2z M328,641.3c0,2.4-2.6,5.1-4.4,4.4c-2.3-0.9-2-3.6,0.7-4.7
	C327.4,639.8,328,639.8,328,641.3z M452.6,645.1c0.9,1.5-0.6,2.8-4.4,3.5c-2.7,0.6-3.2,0.4-3.2-1.3c0-1.1,0.3-2.3,0.7-2.6
	C446.7,643.6,451.8,643.9,452.6,645.1z M331.8,651.7c0.4,2.7-0.8,2.9-5.1,0.6c-2.9-1.5-3-1.7-1.2-2.4
	C328.9,648.6,331.5,649.3,331.8,651.7z M460.5,650c0.7,1.1-4.2,3.7-5.1,2.7c-0.4-0.3-0.4-1.3-0.1-2.2
	C456,648.8,459.5,648.4,460.5,650z M451,653c0,1-4.1,3-6.1,3c-1.9,0-0.8-2.9,1.4-3.3C450.3,651.9,451,652,451,653z M342.9,654.6
	c0.3,0.2,0,0.9-0.6,1.5c-1.5,1.5-5.3,0.2-5.3-1.8c0-1.2,0.6-1.4,2.7-0.8C341.3,653.9,342.7,654.4,342.9,654.6z M353,655
	c2.2,0.7,2.1,0.8-1.2,0.9c-2.1,0.1-3.8-0.4-3.8-0.9C348,653.9,349.4,653.9,353,655z M366.7,656.6c2.6,0.8-0.2,2.2-3.3,1.6
	c-2.4-0.4-3-1.3-1.8-2.5C362.2,655.2,362.7,655.2,366.7,656.6z M415,655.9c0,1.2-2,2.5-2.7,1.8c-0.7-0.7,0.6-2.7,1.8-2.7
	C414.6,655,415,655.4,415,655.9z M430,655.9c0,0.9-4.8,2.1-8.6,2.1c-1.5,0-2.4-0.6-2.4-1.5c0-1.2,1.3-1.5,5.5-1.5
	C427.5,655,430,655.4,430,655.9z M437,656c-2,1.3-5,1.3-5,0c0-0.6,1.5-1,3.3-1C437.7,655,438.1,655.3,437,656z M363.5,667
	c0.7,0,1.6,0.7,1.9,1.6c0.5,1.2,0.1,1.4-1.7,0.9c-1.2-0.4-2.9-1.4-3.7-2.2c-1.3-1.4-1.3-1.5,0.3-0.9
	C361.3,666.7,362.8,667,363.5,667z M377,668c0,1.3-4,1.3-6,0c-1.1-0.7-0.5-1,2.3-1C375.3,667,377,667.4,377,668z M416.2,668.2
	c-0.9,0.9-1.5,0.9-2.4,0c-0.9-0.9-0.7-1.2,1.2-1.2S417.1,667.3,416.2,668.2z M424.5,668c-0.3,0.5-1.3,1-2.1,1c-0.8,0-1.4-0.5-1.4-1
	c0-0.6,0.9-1,2.1-1C424.2,667,424.8,667.4,424.5,668z M444.2,673.5c0.1,0.6-1.6,1.9-3.8,3c-2.9,1.4-6.5,2-14.1,2.3
	c-18,0.7-23.8-2-7.1-3.3c5.1-0.4,12.5-1.3,16.3-2C443.2,672.1,444.1,672.1,444.2,673.5z M366.5,675.4c14.7,1.4,13.7,2.8-1.9,2.8
	c-11.2,0-17.4-1.4-19.1-4.2c-0.6-1,0.3-1.1,4.1-0.5C352.3,673.9,359.9,674.8,366.5,675.4z M346,684c0.7,1.3,0.7,2,0.1,2
	s-1.5-0.9-2.1-2c-0.7-1.3-0.7-2-0.1-2C344.5,682,345.4,682.9,346,684z M378.5,686c0,3.4-5.5,4.4-16.9,3c-9.5-1.1-12.6-2.2-12.6-4.4
	c0-1.1,2.8-1.4,14.8-1.2l14.7,0.2V686z M443.3,685.5c0.1,0.5-1.6,1.9-3.8,2.9c-3,1.5-6.8,2.1-15.1,2.4c-11.4,0.5-15.4-0.4-15.4-3.3
	c0-1.2,1.5-1.5,6.3-1.6c3.4-0.1,8.7-0.4,11.7-0.9C434.3,684,443,684.2,443.3,685.5z M397,689c0.6,1.1,1,6.1,0.8,11.6
	c-0.2,7.8-0.6,9.9-2,10.8c-1.3,0.8-2.2,0.6-3.8-0.9c-1.8-1.7-2-2.6-1.5-9.4c1-12.5,1.4-14.1,3.5-14.1C395.1,687,396.4,687.9,397,689
	z M372.8,693.6c4.8,0.5,5.3,0.8,5,2.7c-0.3,2.1-0.8,2.2-11.8,2.2c-6.3,0-12.7-0.4-14.1-0.8c-2.8-0.7-4.4-3.1-3.3-4.9
	C349.2,691.9,359.6,692.3,372.8,693.6z M443,696.1c0,3.2-5.8,4.9-19.2,5.6c-11.9,0.6-12.1,0.6-13.9-1.8c-1-1.3-1.9-2.7-1.9-3.2
	c0-0.4,3.3-0.8,7.3-0.8c3.9-0.1,10.4-0.5,14.2-0.9C442.3,693.7,443,693.8,443,696.1z M347.6,701.8c0.7,0.4,1.4,1.6,1.7,2.7
	c0.4,1.8,0.5,1.8,0.6-0.3c0.1-2.1,0.4-2.2,5.9-1.6c17,1.9,16.7,1.8,17,4.1c0.2,1.5-0.3,2.3-1.8,2.8c-2.7,0.9-21-0.5-21-1.5
	c0-0.5-1-1-2.2-1.2c-1.7-0.2-2.4-1.1-2.6-3.1C344.9,701,345.6,700.4,347.6,701.8z M441.5,705c0.9,1.5-3.1,4.8-6.7,5.5
	c-1.8,0.3-7.6,0.5-12.8,0.3c-9-0.3-9.5-0.4-9.8-2.6c-0.3-1.9,0.1-2.2,3-2.3c4.6-0.2,24.2-1.5,25-1.7
	C440.6,704.1,441.1,704.4,441.5,705z M378,705.9c0,0.6-0.4,1.3-1,1.6c-0.5,0.3-1-0.1-1-0.9c0-0.9,0.5-1.6,1-1.6
	C377.6,705,378,705.4,378,705.9z M444.3,721.9c1.9,1.9,0.1,2.2-5.4,1c-3.3-0.7-9.2-0.9-15.3-0.6c-6,0.4-9.6,0.3-9-0.3
	C416.6,720,442.3,719.9,444.3,721.9z M382.3,724c2.7,1.1-8.9,0.2-14.3-1.1c-2.5-0.6-1.2-0.7,4.3-0.3
	C376.6,722.9,381.1,723.5,382.3,724z M439.7,727.6c-0.3,0.3-1.2,0.4-1.9,0.1c-0.8-0.3-0.5-0.6,0.6-0.6
	C439.5,727,440.1,727.3,439.7,727.6z M381.8,730c0.7,1.1,0.9,2,0.4,2c-1,0-3.2-2.2-3.2-3.2C379,727.3,380.5,728,381.8,730z
	 M325.9,742"/>
<path d="M495,305.3c-3.9,1.9-16.1,16.7-15.8,19c0.5,3.5,2.5,3,5.6-1.5c3.3-4.8,11.1-12.8,12.5-12.8c1.6,0,12,10.6,19.9,20.2
	c7.8,9.7,10.8,11.8,10.8,7.6c0-2.7-6.3-11-17-22.1C501.1,305.3,498.4,303.6,495,305.3z"/>
<path d="M492.1,348.2c-7,4.7-11.1,19.2-11.1,38.9c0,16.2,2.7,26.8,8.2,32.6c9,9.4,18.9,5.7,23.6-8.9c3.4-10.1,4.5-19.1,3.9-31.2
	c-0.9-20-7-32.2-16.7-33.3C496.4,345.9,494.8,346.3,492.1,348.2z"/>
<path d="M291.5,349.1c-4.6,1.3-9.3,6.5-11.1,12.3c-4.1,13.4-3.8,41.1,0.6,52.8c2.3,6.2,4.9,9,10.3,11.3c7,2.9,13.1-0.4,17.6-9.8
	c7.3-15.1,6.2-49.3-2-60.8C303.3,349.8,297.2,347.5,291.5,349.1z"/>
<path d="M251.8,383c-2.3,3.1-4.6,3.8-6.5,1.9c-2.2-2.2-3.4-0.4-1.3,1.8c1.1,1.2,2,2.5,2,2.9c0,0.4-1.7,3-3.8,5.8
	c-5,6.7-7.4,10.7-7,11.2c0.2,0.2,2-1.8,4-4.4c2-2.6,5.1-6,6.8-7.7l3.1-3l3.9,2.3c5.1,2.9,6.9,2.8,4-0.3c-1.3-1.4-2.9-2.5-3.6-2.5
	c-2.8,0-2.4-2.4,1-5.9c4.1-4.2,4.4-5.1,1.6-5.1C254.9,380,253.1,381.3,251.8,383z"/>
<path d="M390.1,416.9c-6.4,2.3-9.4,5.4-8.6,9.3c1.3,7.6,7.3,11.2,18.5,11.2c8.5-0.1,12.3-1.6,16.4-6.4
	C425.5,420.1,407.9,410.8,390.1,416.9z"/>
</svg>
