<?xml version="1.0" encoding="utf-8"?>
<!-- Generator: Adobe Illustrator 27.8.1, SVG Export Plug-In . SVG Version: 6.00 Build 0)  -->
<svg version="1.1" id="Layer_1" xmlns="http://www.w3.org/2000/svg" xmlns:xlink="http://www.w3.org/1999/xlink" x="0px" y="0px"
	 viewBox="0 0 898 895" style="enable-background:new 0 0 898 895;" xml:space="preserve">
<g transform="translate(0.000000,895.000000) scale(0.100000,-0.100000)">
	<path d="M4332,8333c-163-172-278-302-358-403c-58-74-174-248-174-261c0-23-31-3-95,62c-129,129-297,226-462,268
		c-426,109-866-23-1204-359c-90-89-209-237-209-260c0-3,127-6,283-6c252,1,294-1,397-21c376-73,713-224,953-427
		c83-71,147-156,202-270c38-79,95-251,95-287c0-7-27,28-59,77c-40,61-96,126-171,197c-275,264-642,436-1046,492
		c-139,20-386,22-467,5c-82-17-145-63-179-130c-81-158-50-611,64-957c81-245,202-446,373-619c120-121,196-179,326-248
		c46-25,79-46,73-46c-32,0-228,41-284,60c-133,45-219,98-321,200c-254,251-441,675-500,1135c-7,55-10,172-7,302c2,117,2,213-2,213
		s-39-22-79-50c-367-253-591-657-591-1067c0-301,99-540,309-747l70-69l-92-54c-205-122-451-321-705-573l-104-103l103-96
		c279-261,522-452,705-552l74-41l-70-71c-116-120-170-206-226-363c-51-142-68-254-60-404c15-330,146-610,406-870
		c83-83,241-210,262-210c2,0,2,101,0,225c-5,235,3,340,39,515c94,462,361,918,625,1066c84,47,219,99,311,119c37,9,79,18,93,21
		s-12-17-58-45c-467-281-773-880-776-1516c-1-192,14-249,82-315c61-59,101-71,255-77c394-16,818,106,1162,335
		c206,137,365,292,441,432c15,27,29,49,30,47c6-6-42-170-71-242c-38-96-99-197-158-262c-182-198-561-403-914-492
		c-217-55-495-81-700-64c-70,6-103,5-103-2c0-6,20-39,44-75c165-244,435-449,701-533c139-44,225-57,369-57c305,0,516,85,748,299
		l76,71l47-87c107-198,275-420,536-707l153-169l99,104c276,290,478,552,599,776l44,82l45-45c217-223,458-324,771-324
		c334,0,627,124,888,376c93,90,208,231,225,276c6,14-17,16-212,15c-364,0-649,58-966,199c-364,161-590,361-695,614
		c-19,47-62,194-62,215c0,4,19-22,43-58c196-291,605-556,1024-662c187-47,286-59,493-59c191-1,196,0,252,26c67,31,110,84,136,167
		c13,43,17,91,16,211c-1,306-59,564-189,836c-143,301-368,556-599,678c-60,32-52,32,77,2c188-45,328-117,432-221
		c261-262,455-707,505-1164c8-70,11-190,8-321c-3-116-3-210,0-210s41,24,86,54c388,260,636,755,586,1172c-30,249-138,474-308,638
		l-51,49l80,46c112,65,239,157,382,276c142,119,407,363,407,375c0,13-256,256-390,369c-147,125-305,241-410,301c-41,24-77,45-79,47
		c-2,1,39,47,90,101c112,118,179,226,225,360c153,446,13,937-368,1297c-70,67-224,185-241,185c-2,0-4-109-4-242c0-268-11-371-64-581
		c-54-214-151-439-263-612c-177-270-362-396-679-461c-66-13-122-24-126-24c-3,0,36,24,87,53c258,146,481,376,607,627
		c82,164,148,376,182,585c25,154,25,487,1,565c-40,128-125,180-308,189c-320,17-646-50-946-193c-285-137-530-341-657-549l-38-62
		l7,40c21,124,99,310,170,406c160,218,591,455,986,543c186,41,290,49,527,43c119-3,224-8,234-12c27-11,21,7-33,89
		c-157,240-480,472-754,541c-205,52-365,55-567,10c-192-42-351-129-501-273l-82-79l-70,106c-124,185-264,351-493,584
		c-80,81-151,147-158,147S4414,8419,4332,8333z M4626,7817c139-143,217-239,319-392c308-461,357-828,189-1407
		c-107-369-271-695-511-1016c-86-115-104-146-113-192c-15-75-18-81-19-39c-2,62-21,100-119,232c-137,187-213,310-311,507
		c-103,208-167,377-221,583c-56,218-70,309-70,472c0,168,17,279,66,425c82,246,292,562,553,832c57,60,109,108,116,108
		S4566,7879,4626,7817z M3155,7661c150-37,318-130,436-243l56-53l-10-77l-11-77l-40,33c-195,157-483,286-717,320
		c-114,17-317,20-387,7c-54-11-45-2,34,31c74,32,191,65,270,78C2872,7693,3062,7684,3155,7661z M6284,7665c86-18,233-68,262-90
		c16-11,11-12-36-3c-70,13-331,3-427-16c-215-44-429-141-634-288l-76-55l-10,71l-10,71l46,48c128,134,347,247,536,277
		C6016,7692,6188,7685,6284,7665z M2647,6844c351-52,634-208,790-436c52-76,113-180,113-193c0-4-24,15-53,41c-98,89-241,162-405,206
		c-59,16-118,22-248,25c-344,10-379-22-377-337c1-286,73-501,232-697c57-70,55-70-71-8c-262,131-420,362-498,730
		c-39,183-37,597,4,649C2160,6857,2475,6870,2647,6844z M6758,6849c53-6,100-15,103-21c4-6,12-63,19-126c17-157,8-407-19-535
		c-84-396-253-620-574-761l-57-26l53,63c101,119,165,249,209,424c20,76,23,114,23,283c0,188-1,197-25,245c-41,83-66,90-300,89
		c-179,0-203-3-295-27c-130-35-283-111-381-188l-78-62l34,59c118,211,254,346,440,439C6165,6833,6458,6883,6758,6849z M1357,6358
		c-3-18-1-88,4-156c25-339,119-595,313-855c36-49,66-90,66-92c0-1-35-8-77-15l-78-12l-54,58c-113,124-198,265-241,399
		c-28,89-39,307-20,423c10,65,62,250,77,275C1357,6400,1362,6388,1357,6358z M7695,6245c49-169,56-372,19-524c-20-83-79-210-134-290
		c-53-79-168-201-188-201c-8,0-44,5-78,11l-63,11l58,76c223,294,330,610,331,986l1,81l15-35C7664,6341,7682,6289,7695,6245z
		 M6322,6250c-4-66-38-173-84-265c-141-280-515-727-765-912c-149-110-246-163-618-338c-55-25-114-58-132-71l-32-24l30-48
		c16-26,32-64,36-85c3-21,12-41,19-44c31-12,126,20,186,62c358,252,516,335,850,450c388,133,587,171,858,162c300-11,495-72,774-245
		c182-112,472-352,572-471l28-34l-107-103c-301-289-679-503-988-558c-326-58-666-4-1134,181c-285,112-507,231-755,402
		c-160,111-199,131-256,131c-29,0-34-4-39-27c-3-16-18-52-33-82s-28-58-30-61c-7-17,113-81,243-130c381-144,641-327,900-635
		c290-346,453-620,480-809l7-49l-54,7c-72,10-211,57-306,105c-242,121-655,459-835,681c-125,155-235,349-350,616
		c-26,61-61,132-77,157l-29,47l-37-25c-37-25-93-45-128-45c-17,0-18-5-12-57c8-66,23-95,110-207c199-255,352-552,477-926
		c112-335,139-475,139-715c0-249-42-417-165-661c-118-235-284-467-475-668l-93-97l-75,73c-314,309-576,769-636,1118
		c-33,192-28,421,15,618c98,450,282,850,564,1227c101,134,114,159,121,233l6,58l-54,12c-30,7-70,23-90,37l-35,24l-26-27
		c-42-44-92-136-137-250c-168-424-382-685-840-1024c-215-159-374-247-520-287c-110-31-120-29-120,18c0,186,285,639,620,985
		c217,225,417,351,771,486c130,49,211,90,225,111c3,6-5,32-19,57c-14,26-29,64-32,85l-8,39l-46-7c-70-9-95-22-241-121
		c-301-203-533-319-931-462c-357-129-466-152-712-152c-254,0-435,45-666,166c-209,109-382,233-584,417l-107,99l54,61
		c159,181,466,412,714,536c214,108,350,140,612,148c215,6,306-2,487-43c455-102,821-266,1165-522c117-87,129-93,199-101l58-7l11,48
		c7,26,25,65,41,87l28,40l-47,42c-53,46-133,89-272,144c-363,144-625,335-871,635c-258,315-407,562-444,738c-21,95-22,92,34,92
		c176,0,525-206,894-527c246-214,435-491,576-846c61-152,94-220,122-248c20-20,20-19,65,7c35,21,63,28,118,31c64,4,77,2,131-26
		l60-31l28,32c38,43,51,69,91,180c152,416,368,724,691,984c293,235,576,401,749,439C6321,6304,6326,6303,6322,6250z M1708,3581
		c22-6,21-9-33-81c-128-170-221-361-270-553c-33-132-45-229-46-380v-132l-21,50c-69,170-97,422-64,585c10,47,31,117,47,157
		c40,94,133,233,209,311l62,63l46-7C1664,3590,1695,3584,1708,3581z M7482,3511c222-236,296-500,232-826c-14-69-70-245-79-245
		c-1,0,0,28,2,63c6,74-11,280-33,386c-43,211-158,453-298,624c-26,32-46,60-44,62c3,3,99,21,125,24C7393,3599,7436,3560,7482,3511z
		 M2711,3455c-181-196-279-558-230-843c22-127,76-154,302-154c280,0,534,82,714,230l64,53l-32-63c-111-223-285-380-529-481
		c-245-102-435-133-776-128l-92,1l-11,63c-20,104-25,314-11,423c26,211,96,427,186,572c52,84,170,209,249,263c54,37,185,108,199,109
		C2749,3500,2734,3480,2711,3455z M6333,3458c123-64,231-150,304-242c115-146,205-367,238-586c17-112,19-336,4-447
		c-16-126,7-113-207-113c-273,0-449,31-675,120c-242,94-408,238-531,461c-20,36-36,69-36,73c0,3,25-14,54-38
		c182-148,425-227,701-229c171-1,248,14,286,54c33,36,38,56,46,206c15,291-67,548-234,733c-25,27-42,50-38,50S6289,3481,6333,3458z
		 M3635,1603l7-59l-69-59c-184-157-360-236-571-254c-163-15-316,8-487,71l-90,33l185,6c279,10,479,58,697,167
		c102,51,269,158,294,188c12,15,14,14,20-9C3625,1673,3631,1635,3635,1603z M5437,1657c198-148,424-246,673-292
		c100-18,358-36,415-30l40,5l-55-26c-135-64-372-102-531-84c-213,24-372,95-559,250c-54,46-60,54-60,89c0,43,11,131,16,131
		C5378,1700,5406,1681,5437,1657z"/>
	<path d="M4453,7149c-75-37-200-188-282-341c-94-172-134-335-135-538c-1-200,40-349,135-487c34-49,115-133,128-133c5,0-4,48-20,108
		c-84,330-58,656,76,939c49,103,129,233,145,233c14,0,104-140,144-225c134-283,160-597,76-930c-17-65-29-120-26-122
		c7-7,67,50,110,106c196,255,217,653,51,998c-78,165-202,326-294,385C4507,7176,4506,7176,4453,7149z"/>
	<path d="M4460,6353c-56-88-99-236-100-341c0-108,52-294,107-376l26-40l23,30c32,39,80,156,100,241c31,132,15,280-43,413
		c-27,61-64,120-76,120C4493,6400,4476,6379,4460,6353z"/>
	<path d="M3075,5858c16-75,59-187,96-251c51-85,92-116,286-212c149-74,213-97,213-78c0,5-38,87-85,181c-103,210-145,260-268,321
		c-80,39-182,71-227,71C3071,5890,3069,5886,3075,5858z"/>
	<path d="M5865,5879c-150-35-272-95-337-167c-58-65-230-412-205-412c12,0,196,84,292,133c127,65,180,117,233,228
		c35,73,72,184,72,218C5920,5891,5920,5891,5865,5879z"/>
	<path d="M2505,4879c-231-31-447-126-640-283c-106-85-155-145-155-187c0-66,190-225,375-315c320-156,692-159,963-8
		c57,32,218,171,209,181c-2,2-60-12-129-31c-305-84-600-74-888,29c-80,29-229,103-269,134l-24,18l49,37c63,47,247,137,346,170
		c175,57,269,71,473,70c184,0,267-10,413-50c22-6,23-5,10,15c-21,35-126,111-205,148C2892,4872,2674,4902,2505,4879z"/>
	<path d="M6223,4879c-174-19-356-101-458-208c-21-22-37-41-34-41c2,0,48,11,102,25c314,79,653,42,980-109c81-37,217-122,217-135
		c0-14-126-82-226-121c-220-86-391-115-624-107c-158,6-246,20-380,63c-41,13-76,21-79,18s27-36,67-74c56-54,96-81,175-120
		c143-70,247-93,417-93c255,1,452,59,666,198c97,63,220,180,229,217c13,52-64,137-236,260C6797,4825,6497,4908,6223,4879z"/>
	<path d="M2860,4574c-82-13-142-29-195-51c-65-27-155-81-155-93s111-67,180-88c141-43,276-37,448,20c102,34,187,82,176,99
		c-12,20-132,69-217,89C3011,4570,2902,4581,2860,4574z"/>
	<path d="M5919,4551c-106-23-244-80-244-101c0-8,31-32,70-52c153-81,348-107,509-69c83,20,226,84,226,102c0,14-113,76-190,104
		C6189,4572,6044,4578,5919,4551z"/>
	<path d="M3525,3601c-250-112-302-154-375-305c-45-94-87-222-76-233c10-10,165,40,244,79c130,64,166,106,261,302
		c81,168,100,216,85,215C3659,3659,3597,3633,3525,3601z"/>
	<path d="M5317,3644c-6-7,68-176,126-289c25-49,63-101,97-135c75-75,214-146,343-174c36-8,36,10-4,128c-37,111-88,205-140,257
		S5334,3661,5317,3644z"/>
	<path d="M4459,3247c-53-85-99-261-99-376c1-100,40-225,106-339c25-42,26-43,45-26c27,25,85,147,104,219c41,153-1,404-88,532
		c-12,18-26,33-32,33C4490,3290,4473,3271,4459,3247z"/>
	<path d="M4252,3191c-128-128-200-298-218-513c-24-299,107-654,329-894c72-78,111-100,154-89c36,9,165,141,226,233
		c155,232,221,438,219,682c-1,183-41,329-125,458c-41,62-132,162-147,162c-4,0,4-37,17-82c42-145,56-253,56-413
		c0-218-46-411-140-600c-44-87-123-200-132-188c-105,123-200,344-238,556c-33,182-18,449,37,657c10,41,18,76,16,78
		S4279,3218,4252,3191z"/>
</g>
</svg>
